<svg width="1331" height="1020" viewBox="0 0 1331 1020" fill="none" xmlns="http://www.w3.org/2000/svg">
<rect width="1331" height="1020" rx="50" fill="#00A74D" fill-opacity="0.1"/>
<path d="M1245.6 434.461C1240.94 363.041 1197.62 294.911 1134.05 242.991C1096.85 212.61 1052.52 186.239 1004.61 166.002C954.784 145.011 900.603 121.45 841.52 118.932C826.874 118.113 812.185 119.266 797.844 122.359C743.424 134.987 853.955 173.405 868.44 179.059C714.387 136.958 555.039 94.2225 389.149 102.156C357.242 103.681 324.088 107.417 296.485 120.474C268.882 133.531 248.163 157.914 253.424 181.561C257.78 201.095 277.73 222.686 260.615 238.33C255.73 242.837 248.659 245.578 241.655 247.977C205.786 260.315 166.892 267.22 133.123 282.642C80.8557 306.546 46.3523 349.144 31.4748 393.49C16.5973 437.836 19.5182 484.033 28.0586 528.636C44.2855 612.599 81.8977 695.397 153.381 759.397C255.474 850.831 418.135 895.023 579.226 899.409C774.187 904.721 982.882 850.403 1106.34 732.46C1124.65 714.965 1141.31 695.654 1147.34 674.08C1153.37 652.507 1146.72 628.209 1124.72 614.604C1118.81 610.937 1111.21 607.082 1111.57 601.187C1112.06 593.202 1125.63 590.22 1136 588.318C1203.98 575.878 1240.55 517.001 1245.31 464.67C1246.19 454.623 1246.29 444.523 1245.6 434.461Z" fill="#92E3A9"/>
<path opacity="0.7" d="M1245.6 434.461C1240.94 363.041 1197.62 294.911 1134.05 242.991C1096.85 212.61 1052.52 186.239 1004.61 166.002C954.784 145.011 900.603 121.45 841.52 118.932C826.874 118.113 812.185 119.266 797.844 122.359C743.424 134.987 853.955 173.405 868.44 179.059C714.387 136.958 555.039 94.2225 389.149 102.156C357.242 103.681 324.088 107.417 296.485 120.474C268.882 133.531 248.163 157.914 253.424 181.561C257.78 201.095 277.73 222.686 260.615 238.33C255.73 242.837 248.659 245.578 241.655 247.977C205.786 260.315 166.892 267.22 133.123 282.642C80.8557 306.546 46.3523 349.144 31.4748 393.49C16.5973 437.836 19.5182 484.033 28.0586 528.636C44.2855 612.599 81.8977 695.397 153.381 759.397C255.474 850.831 418.135 895.023 579.226 899.409C774.187 904.721 982.882 850.403 1106.34 732.46C1124.65 714.965 1141.31 695.654 1147.34 674.08C1153.37 652.507 1146.72 628.209 1124.72 614.604C1118.81 610.937 1111.21 607.082 1111.57 601.187C1112.06 593.202 1125.63 590.22 1136 588.318C1203.98 575.878 1240.55 517.001 1245.31 464.67C1246.19 454.623 1246.29 444.523 1245.6 434.461Z" fill="white"/>
<path opacity="0.3" d="M1130.38 125.409C1130.38 125.409 1117.97 91.1677 1086.93 94.2834C1055.89 97.3992 1062.1 125.409 1043.49 130.075C1024.88 134.741 1018.66 116.062 1000.04 122.293C981.409 128.525 984.516 140.956 976.708 145.638C968.9 150.319 965.856 134.74 947.229 144.04C928.601 153.339 924.011 162.734 924.011 162.734H1190.9C1190.9 162.734 1184.69 140.94 1170.73 133.175C1156.77 125.409 1142.8 131.625 1130.38 125.409Z" stroke="black" stroke-miterlimit="10"/>
<path opacity="0.3" d="M826.012 132.887C823.24 128.365 820.61 123.555 815.543 119.912C805.424 112.658 793.234 106.523 780.407 107.689C755.756 110.006 758.002 125.665 747.916 131.289C737.829 136.913 734.467 127.917 724.396 130.17C714.325 132.423 712.062 136.913 707.585 139.15C703.107 141.387 696.43 125.665 679.571 130.17C662.712 134.676 653.805 154.889 645.949 156.007C638.093 157.126 634.794 149.264 626.907 152.636C621.752 155.024 617.15 158.463 613.394 162.734H900.221C900.221 162.734 891.265 135.779 874.47 134.644C861.579 133.766 845.054 151.214 832.896 141.499C830.112 139.059 827.781 136.143 826.012 132.887Z" stroke="black" stroke-miterlimit="10"/>
<path opacity="0.3" d="M242.367 144.872C240.835 141.897 238.702 139.274 236.105 137.17C230.05 132.84 222.735 129.181 215.071 129.852C200.315 131.21 201.67 140.622 195.63 143.977C189.591 147.333 187.583 141.964 181.56 143.242C175.536 144.52 174.182 147.285 171.505 148.627C168.828 149.969 164.796 140.558 154.726 143.242C144.655 145.926 139.301 158.038 134.616 158.709C129.931 159.38 127.891 154.746 123.191 156.696C120.144 158.138 117.431 160.2 115.223 162.752H286.841C286.841 162.752 281.471 146.614 271.432 145.942C263.704 145.415 253.824 155.865 246.542 150.049C244.86 148.581 243.447 146.828 242.367 144.872Z" stroke="black" stroke-miterlimit="10"/>
<g opacity="0.31">
<path d="M111.781 243.952V400.06H132.528V593.989H156.446V304.494H201.112V187.197H272.898V403.208H300.003V317.277H360.62V336.195H412.456V591.624H433.203V545.111H489.819V590.841H516.94V264.532H608.661V576.652H634.97" stroke="black" stroke-miterlimit="10"/>
<path d="M97.9657 243.952H111.781V233.71H96.5794" stroke="black" stroke-miterlimit="10"/>
<path d="M201.112 304.495H156.176V309.688H201.112V304.495Z" stroke="black" stroke-miterlimit="10"/>
<path d="M272.898 187.197H200.905V192.246H272.898V187.197Z" stroke="black" stroke-miterlimit="10"/>
<path d="M316.209 306.556H305.724V317.261H316.209V306.556Z" stroke="black" stroke-miterlimit="10"/>
<path d="M343.458 311.044H338.215V317.26H343.458V311.044Z" stroke="black" stroke-miterlimit="10"/>
<path d="M412.631 336.195H360.62V342.475H412.631V336.195Z" stroke="black" stroke-miterlimit="10"/>
<path d="M608.645 259.85H516.94V264.531H608.645V259.85Z" stroke="black" stroke-miterlimit="10"/>
<path d="M576.839 250.519H540.508V259.85H576.839V250.519Z" stroke="black" stroke-miterlimit="10"/>
<path d="M569.159 250.871V242.227H595.722V259.499" stroke="black" stroke-miterlimit="10"/>
<path d="M394.147 333.623V263.829H478.187V321.655H507.109V223.276H614.971V342.251H621.855" stroke="black" stroke-miterlimit="10"/>
<path d="M333.626 299.061V221.95H276.468" stroke="black" stroke-miterlimit="10"/>
<path d="M153.419 318.331H134.6V264.484H116.434" stroke="black" stroke-miterlimit="10"/>
<path d="M213.764 202.009H206.546V215.974H213.764V202.009Z" stroke="black" stroke-miterlimit="10"/>
<path d="M226.751 202.009H219.532V215.974H226.751V202.009Z" stroke="black" stroke-miterlimit="10"/>
<path d="M239.738 202.009H232.519V215.974H239.738V202.009Z" stroke="black" stroke-miterlimit="10"/>
<path d="M252.725 202.009H245.506V215.974H252.725V202.009Z" stroke="black" stroke-miterlimit="10"/>
<path d="M265.712 202.009H258.493V215.974H265.712V202.009Z" stroke="black" stroke-miterlimit="10"/>
<path d="M213.764 225.608H206.546V239.573H213.764V225.608Z" stroke="black" stroke-miterlimit="10"/>
<path d="M226.751 225.608H219.532V239.573H226.751V225.608Z" stroke="black" stroke-miterlimit="10"/>
<path d="M239.738 225.608H232.519V239.573H239.738V225.608Z" stroke="black" stroke-miterlimit="10"/>
<path d="M252.725 225.608H245.506V239.573H252.725V225.608Z" stroke="black" stroke-miterlimit="10"/>
<path d="M265.712 225.608H258.493V239.573H265.712V225.608Z" stroke="black" stroke-miterlimit="10"/>
<path d="M213.764 249.208H206.546V263.173H213.764V249.208Z" stroke="black" stroke-miterlimit="10"/>
<path d="M226.751 249.208H219.532V263.173H226.751V249.208Z" stroke="black" stroke-miterlimit="10"/>
<path d="M239.738 249.208H232.519V263.173H239.738V249.208Z" stroke="black" stroke-miterlimit="10"/>
<path d="M252.725 249.208H245.506V263.173H252.725V249.208Z" stroke="black" stroke-miterlimit="10"/>
<path d="M265.712 249.208H258.493V263.173H265.712V249.208Z" stroke="black" stroke-miterlimit="10"/>
<path d="M213.764 272.794H206.546V286.759H213.764V272.794Z" stroke="black" stroke-miterlimit="10"/>
<path d="M226.751 272.794H219.532V286.759H226.751V272.794Z" stroke="black" stroke-miterlimit="10"/>
<path d="M239.738 272.794H232.519V286.759H239.738V272.794Z" stroke="black" stroke-miterlimit="10"/>
<path d="M252.725 272.794H245.506V286.759H252.725V272.794Z" stroke="black" stroke-miterlimit="10"/>
<path d="M265.712 272.794H258.493V286.759H265.712V272.794Z" stroke="black" stroke-miterlimit="10"/>
<path d="M213.764 296.392H206.546V310.357H213.764V296.392Z" stroke="black" stroke-miterlimit="10"/>
<path d="M226.751 296.392H219.532V310.357H226.751V296.392Z" stroke="black" stroke-miterlimit="10"/>
<path d="M239.738 296.392H232.519V310.357H239.738V296.392Z" stroke="black" stroke-miterlimit="10"/>
<path d="M252.725 296.392H245.506V310.357H252.725V296.392Z" stroke="black" stroke-miterlimit="10"/>
<path d="M265.712 296.392H258.493V310.357H265.712V296.392Z" stroke="black" stroke-miterlimit="10"/>
<path d="M213.764 319.994H206.546V333.959H213.764V319.994Z" stroke="black" stroke-miterlimit="10"/>
<path d="M226.751 319.994H219.532V333.959H226.751V319.994Z" stroke="black" stroke-miterlimit="10"/>
<path d="M239.738 319.994H232.519V333.959H239.738V319.994Z" stroke="black" stroke-miterlimit="10"/>
<path d="M252.725 319.994H245.506V333.959H252.725V319.994Z" stroke="black" stroke-miterlimit="10"/>
<path d="M265.712 319.994H258.493V333.959H265.712V319.994Z" stroke="black" stroke-miterlimit="10"/>
<path d="M169.481 319.994H162.263V333.959H169.481V319.994Z" stroke="black" stroke-miterlimit="10"/>
<path d="M182.468 319.994H175.25V333.959H182.468V319.994Z" stroke="black" stroke-miterlimit="10"/>
<path d="M195.455 319.994H188.237V333.959H195.455V319.994Z" stroke="black" stroke-miterlimit="10"/>
<path d="M169.481 342.922H162.263V356.887H169.481V342.922Z" stroke="black" stroke-miterlimit="10"/>
<path d="M182.468 342.922H175.25V356.887H182.468V342.922Z" stroke="black" stroke-miterlimit="10"/>
<path d="M195.455 342.922H188.237V356.887H195.455V342.922Z" stroke="black" stroke-miterlimit="10"/>
<path d="M169.481 365.85H162.263V379.815H169.481V365.85Z" stroke="black" stroke-miterlimit="10"/>
<path d="M182.468 365.85H175.25V379.815H182.468V365.85Z" stroke="black" stroke-miterlimit="10"/>
<path d="M195.455 365.85H188.237V379.815H195.455V365.85Z" stroke="black" stroke-miterlimit="10"/>
<path d="M169.481 388.78H162.263V402.745H169.481V388.78Z" stroke="black" stroke-miterlimit="10"/>
<path d="M182.468 388.78H175.25V402.745H182.468V388.78Z" stroke="black" stroke-miterlimit="10"/>
<path d="M195.455 388.78H188.237V402.745H195.455V388.78Z" stroke="black" stroke-miterlimit="10"/>
<path d="M169.481 411.708H162.263V425.673H169.481V411.708Z" stroke="black" stroke-miterlimit="10"/>
<path d="M182.468 411.708H175.25V425.673H182.468V411.708Z" stroke="black" stroke-miterlimit="10"/>
<path d="M195.455 411.708H188.237V425.673H195.455V411.708Z" stroke="black" stroke-miterlimit="10"/>
<path d="M169.481 434.638H162.263V448.603H169.481V434.638Z" stroke="black" stroke-miterlimit="10"/>
<path d="M182.468 434.638H175.25V448.603H182.468V434.638Z" stroke="black" stroke-miterlimit="10"/>
<path d="M195.455 434.638H188.237V448.603H195.455V434.638Z" stroke="black" stroke-miterlimit="10"/>
<path d="M169.481 457.582H162.263V471.547H169.481V457.582Z" stroke="black" stroke-miterlimit="10"/>
<path d="M182.468 457.582H175.25V471.547H182.468V457.582Z" stroke="black" stroke-miterlimit="10"/>
<path d="M195.455 457.582H188.237V471.547H195.455V457.582Z" stroke="black" stroke-miterlimit="10"/>
<path d="M169.481 480.512H162.263V494.477H169.481V480.512Z" stroke="black" stroke-miterlimit="10"/>
<path d="M182.468 480.512H175.25V494.477H182.468V480.512Z" stroke="black" stroke-miterlimit="10"/>
<path d="M195.455 480.512H188.237V494.477H195.455V480.512Z" stroke="black" stroke-miterlimit="10"/>
<path d="M169.481 503.44H162.263V517.405H169.481V503.44Z" stroke="black" stroke-miterlimit="10"/>
<path d="M182.468 503.44H175.25V517.405H182.468V503.44Z" stroke="black" stroke-miterlimit="10"/>
<path d="M195.455 503.44H188.237V517.405H195.455V503.44Z" stroke="black" stroke-miterlimit="10"/>
<path d="M169.481 526.368H162.263V540.333H169.481V526.368Z" stroke="black" stroke-miterlimit="10"/>
<path d="M182.468 526.368H175.25V540.333H182.468V526.368Z" stroke="black" stroke-miterlimit="10"/>
<path d="M195.455 526.368H188.237V540.333H195.455V526.368Z" stroke="black" stroke-miterlimit="10"/>
<path d="M169.481 549.297H162.263V563.262H169.481V549.297Z" stroke="black" stroke-miterlimit="10"/>
<path d="M182.468 549.297H175.25V563.262H182.468V549.297Z" stroke="black" stroke-miterlimit="10"/>
<path d="M195.455 549.297H188.237V563.262H195.455V549.297Z" stroke="black" stroke-miterlimit="10"/>
<path d="M285.296 414.376H278.077V428.341H285.296V414.376Z" stroke="black" stroke-miterlimit="10"/>
<path d="M298.283 414.376H291.064V428.341H298.283V414.376Z" stroke="black" stroke-miterlimit="10"/>
<path d="M285.296 437.306H278.077V451.271H285.296V437.306Z" stroke="black" stroke-miterlimit="10"/>
<path d="M298.283 437.306H291.064V451.271H298.283V437.306Z" stroke="black" stroke-miterlimit="10"/>
<path d="M285.296 460.234H278.077V474.199H285.296V460.234Z" stroke="black" stroke-miterlimit="10"/>
<path d="M298.283 460.234H291.064V474.199H298.283V460.234Z" stroke="black" stroke-miterlimit="10"/>
<path d="M285.296 483.163H278.077V497.128H285.296V483.163Z" stroke="black" stroke-miterlimit="10"/>
<path d="M298.283 483.163H291.064V497.128H298.283V483.163Z" stroke="black" stroke-miterlimit="10"/>
<path d="M285.296 506.092H278.077V520.057H285.296V506.092Z" stroke="black" stroke-miterlimit="10"/>
<path d="M298.283 506.092H291.064V520.057H298.283V506.092Z" stroke="black" stroke-miterlimit="10"/>
<path d="M285.296 529.021H278.077V542.986H285.296V529.021Z" stroke="black" stroke-miterlimit="10"/>
<path d="M298.283 529.021H291.064V542.986H298.283V529.021Z" stroke="black" stroke-miterlimit="10"/>
<path d="M285.296 551.95H278.077V565.915H285.296V551.95Z" stroke="black" stroke-miterlimit="10"/>
<path d="M298.283 551.95H291.064V565.915H298.283V551.95Z" stroke="black" stroke-miterlimit="10"/>
<path d="M213.764 343.593H206.546V357.558H213.764V343.593Z" stroke="black" stroke-miterlimit="10"/>
<path d="M226.751 343.593H219.532V357.558H226.751V343.593Z" stroke="black" stroke-miterlimit="10"/>
<path d="M239.738 343.593H232.519V357.558H239.738V343.593Z" stroke="black" stroke-miterlimit="10"/>
<path d="M252.725 343.593H245.506V357.558H252.725V343.593Z" stroke="black" stroke-miterlimit="10"/>
<path d="M265.712 343.593H258.493V357.558H265.712V343.593Z" stroke="black" stroke-miterlimit="10"/>
<path d="M213.764 367.176H206.546V381.141H213.764V367.176Z" stroke="black" stroke-miterlimit="10"/>
<path d="M226.751 367.176H219.532V381.141H226.751V367.176Z" stroke="black" stroke-miterlimit="10"/>
<path d="M239.738 367.176H232.519V381.141H239.738V367.176Z" stroke="black" stroke-miterlimit="10"/>
<path d="M252.725 367.176H245.506V381.141H252.725V367.176Z" stroke="black" stroke-miterlimit="10"/>
<path d="M265.712 367.176H258.493V381.141H265.712V367.176Z" stroke="black" stroke-miterlimit="10"/>
<path d="M213.764 390.777H206.546V404.742H213.764V390.777Z" stroke="black" stroke-miterlimit="10"/>
<path d="M226.751 390.777H219.532V404.742H226.751V390.777Z" stroke="black" stroke-miterlimit="10"/>
<path d="M239.738 390.777H232.519V404.742H239.738V390.777Z" stroke="black" stroke-miterlimit="10"/>
<path d="M252.725 390.777H245.506V404.742H252.725V390.777Z" stroke="black" stroke-miterlimit="10"/>
<path d="M265.712 390.777H258.493V404.742H265.712V390.777Z" stroke="black" stroke-miterlimit="10"/>
<path d="M213.764 414.376H206.546V428.341H213.764V414.376Z" stroke="black" stroke-miterlimit="10"/>
<path d="M226.751 414.376H219.532V428.341H226.751V414.376Z" stroke="black" stroke-miterlimit="10"/>
<path d="M239.738 414.376H232.519V428.341H239.738V414.376Z" stroke="black" stroke-miterlimit="10"/>
<path d="M252.725 414.376H245.506V428.341H252.725V414.376Z" stroke="black" stroke-miterlimit="10"/>
<path d="M265.712 414.376H258.493V428.341H265.712V414.376Z" stroke="black" stroke-miterlimit="10"/>
<path d="M213.764 437.961H206.546V451.926H213.764V437.961Z" stroke="black" stroke-miterlimit="10"/>
<path d="M226.751 437.961H219.532V451.926H226.751V437.961Z" stroke="black" stroke-miterlimit="10"/>
<path d="M239.738 437.961H232.519V451.926H239.738V437.961Z" stroke="black" stroke-miterlimit="10"/>
<path d="M252.725 437.961H245.506V451.926H252.725V437.961Z" stroke="black" stroke-miterlimit="10"/>
<path d="M265.712 437.961H258.493V451.926H265.712V437.961Z" stroke="black" stroke-miterlimit="10"/>
<path d="M213.764 461.561H206.546V475.526H213.764V461.561Z" stroke="black" stroke-miterlimit="10"/>
<path d="M226.751 461.561H219.532V475.526H226.751V461.561Z" stroke="black" stroke-miterlimit="10"/>
<path d="M239.738 461.561H232.519V475.526H239.738V461.561Z" stroke="black" stroke-miterlimit="10"/>
<path d="M252.725 461.561H245.506V475.526H252.725V461.561Z" stroke="black" stroke-miterlimit="10"/>
<path d="M265.712 461.561H258.493V475.526H265.712V461.561Z" stroke="black" stroke-miterlimit="10"/>
<path d="M213.764 485.161H206.546V499.126H213.764V485.161Z" stroke="black" stroke-miterlimit="10"/>
<path d="M226.751 485.161H219.532V499.126H226.751V485.161Z" stroke="black" stroke-miterlimit="10"/>
<path d="M239.738 485.161H232.519V499.126H239.738V485.161Z" stroke="black" stroke-miterlimit="10"/>
<path d="M252.725 485.161H245.506V499.126H252.725V485.161Z" stroke="black" stroke-miterlimit="10"/>
<path d="M265.712 485.161H258.493V499.126H265.712V485.161Z" stroke="black" stroke-miterlimit="10"/>
<path d="M213.764 508.761H206.546V522.726H213.764V508.761Z" stroke="black" stroke-miterlimit="10"/>
<path d="M226.751 508.761H219.532V522.726H226.751V508.761Z" stroke="black" stroke-miterlimit="10"/>
<path d="M239.738 508.761H232.519V522.726H239.738V508.761Z" stroke="black" stroke-miterlimit="10"/>
<path d="M252.725 508.761H245.506V522.726H252.725V508.761Z" stroke="black" stroke-miterlimit="10"/>
<path d="M265.712 508.761H258.493V522.726H265.712V508.761Z" stroke="black" stroke-miterlimit="10"/>
<path d="M213.764 532.345H206.546V546.31H213.764V532.345Z" stroke="black" stroke-miterlimit="10"/>
<path d="M226.751 532.345H219.532V546.31H226.751V532.345Z" stroke="black" stroke-miterlimit="10"/>
<path d="M239.738 532.345H232.519V546.31H239.738V532.345Z" stroke="black" stroke-miterlimit="10"/>
<path d="M252.725 532.345H245.506V546.31H252.725V532.345Z" stroke="black" stroke-miterlimit="10"/>
<path d="M265.712 532.345H258.493V546.31H265.712V532.345Z" stroke="black" stroke-miterlimit="10"/>
<path d="M213.764 556.616H206.546V570.581H213.764V556.616Z" stroke="black" stroke-miterlimit="10"/>
<path d="M226.751 556.616H219.532V570.581H226.751V556.616Z" stroke="black" stroke-miterlimit="10"/>
<path d="M239.738 556.616H232.519V570.581H239.738V556.616Z" stroke="black" stroke-miterlimit="10"/>
<path d="M252.725 556.616H245.506V570.581H252.725V556.616Z" stroke="black" stroke-miterlimit="10"/>
<path d="M265.712 556.616H258.493V570.581H265.712V556.616Z" stroke="black" stroke-miterlimit="10"/>
<path d="M201.112 309.687V594.164" stroke="black" stroke-miterlimit="10"/>
<path d="M311.445 322.981V590.171" stroke="black" stroke-miterlimit="10"/>
<path d="M325.563 322.981V590.171" stroke="black" stroke-miterlimit="10"/>
<path d="M339.681 322.981V590.171" stroke="black" stroke-miterlimit="10"/>
<path d="M353.799 322.981V590.171" stroke="black" stroke-miterlimit="10"/>
<path d="M367.918 349.569V590.171" stroke="black" stroke-miterlimit="10"/>
<path d="M382.036 349.569V590.171" stroke="black" stroke-miterlimit="10"/>
<path d="M396.154 349.569V590.171" stroke="black" stroke-miterlimit="10"/>
<path d="M87.5602 259.18H107.033" stroke="black" stroke-miterlimit="10"/>
<path d="M87.5602 276.452H107.033" stroke="black" stroke-miterlimit="10"/>
<path d="M87.5602 293.74H107.033" stroke="black" stroke-miterlimit="10"/>
<path d="M87.5602 311.014H107.033" stroke="black" stroke-miterlimit="10"/>
<path d="M87.5602 328.3H107.033" stroke="black" stroke-miterlimit="10"/>
<path d="M87.5602 345.574H107.033" stroke="black" stroke-miterlimit="10"/>
<path d="M87.5602 362.864H107.033" stroke="black" stroke-miterlimit="10"/>
<path d="M87.5602 380.135H107.033" stroke="black" stroke-miterlimit="10"/>
<path d="M87.5602 397.424H107.033" stroke="black" stroke-miterlimit="10"/>
<path d="M87.5602 414.696H107.033" stroke="black" stroke-miterlimit="10"/>
<path d="M87.5602 431.986H107.033" stroke="black" stroke-miterlimit="10"/>
<path d="M87.5602 449.272H107.033" stroke="black" stroke-miterlimit="10"/>
<path d="M87.5602 466.546H107.033" stroke="black" stroke-miterlimit="10"/>
<path d="M87.5602 483.835H107.033" stroke="black" stroke-miterlimit="10"/>
<path d="M87.5602 501.106H107.033" stroke="black" stroke-miterlimit="10"/>
<path d="M87.5602 518.396H107.033" stroke="black" stroke-miterlimit="10"/>
<path d="M87.5602 535.668H107.033" stroke="black" stroke-miterlimit="10"/>
<path d="M87.5602 552.956H107.033" stroke="black" stroke-miterlimit="10"/>
<path d="M87.5602 570.229H107.033" stroke="black" stroke-miterlimit="10"/>
<path d="M87.5602 587.519H107.033" stroke="black" stroke-miterlimit="10"/>
<path d="M87.5602 604.789H107.033" stroke="black" stroke-miterlimit="10"/>
<path d="M604.614 367.512H519.888V375.485H604.614V367.512Z" stroke="black" stroke-miterlimit="10"/>
<path d="M604.614 353.579H519.888V361.552H604.614V353.579Z" stroke="black" stroke-miterlimit="10"/>
<path d="M604.614 339.646H519.888V347.62H604.614V339.646Z" stroke="black" stroke-miterlimit="10"/>
<path d="M604.614 325.714H519.888V333.687H604.614V325.714Z" stroke="black" stroke-miterlimit="10"/>
<path d="M604.614 311.779H519.888V319.752H604.614V311.779Z" stroke="black" stroke-miterlimit="10"/>
<path d="M604.614 297.831H519.888V305.804H604.614V297.831Z" stroke="black" stroke-miterlimit="10"/>
<path d="M604.614 283.896H519.888V291.87H604.614V283.896Z" stroke="black" stroke-miterlimit="10"/>
<path d="M604.614 269.964H519.888V277.937H604.614V269.964Z" stroke="black" stroke-miterlimit="10"/>
<path d="M604.614 381.478H519.888V389.451H604.614V381.478Z" stroke="black" stroke-miterlimit="10"/>
<path d="M604.614 395.427H519.888V403.4H604.614V395.427Z" stroke="black" stroke-miterlimit="10"/>
<path d="M604.614 409.391H519.888V417.364H604.614V409.391Z" stroke="black" stroke-miterlimit="10"/>
<path d="M604.614 423.341H519.888V431.314H604.614V423.341Z" stroke="black" stroke-miterlimit="10"/>
<path d="M604.614 437.306H519.888V445.279H604.614V437.306Z" stroke="black" stroke-miterlimit="10"/>
<path d="M604.614 451.255H519.888V459.228H604.614V451.255Z" stroke="black" stroke-miterlimit="10"/>
<path d="M604.614 465.219H519.888V473.192H604.614V465.219Z" stroke="black" stroke-miterlimit="10"/>
<path d="M604.614 479.169H519.888V487.142H604.614V479.169Z" stroke="black" stroke-miterlimit="10"/>
<path d="M604.614 493.133H519.888V501.106H604.614V493.133Z" stroke="black" stroke-miterlimit="10"/>
<path d="M604.614 507.098H519.888V515.071H604.614V507.098Z" stroke="black" stroke-miterlimit="10"/>
<path d="M604.614 521.049H519.888V529.022H604.614V521.049Z" stroke="black" stroke-miterlimit="10"/>
<path d="M604.614 535.012H519.888V542.985H604.614V535.012Z" stroke="black" stroke-miterlimit="10"/>
<path d="M604.614 548.962H519.888V556.935H604.614V548.962Z" stroke="black" stroke-miterlimit="10"/>
<path d="M604.614 562.927H519.888V570.9H604.614V562.927Z" stroke="black" stroke-miterlimit="10"/>
<path d="M604.614 576.875H519.888V584.848H604.614V576.875Z" stroke="black" stroke-miterlimit="10"/>
<path d="M604.614 590.841H519.888V598.814H604.614V590.841Z" stroke="black" stroke-miterlimit="10"/>
<path d="M483.573 523.046H441.218V544.984H483.573V523.046Z" stroke="black" stroke-miterlimit="10"/>
<path d="M473.502 484.488H451.305V523.044H473.502V484.488Z" stroke="black" stroke-miterlimit="10"/>
<path d="M272.898 403.209V593.638" stroke="black" stroke-miterlimit="10"/>
<path d="M516.207 382.34H413.348" stroke="black" stroke-miterlimit="10"/>
<path d="M516.207 393.701H413.348" stroke="black" stroke-miterlimit="10"/>
<path d="M433.633 402.218H417.937V413.578H433.633V402.218Z" stroke="black" stroke-miterlimit="10"/>
<path d="M452.978 402.218H437.282V413.578H452.978V402.218Z" stroke="black" stroke-miterlimit="10"/>
<path d="M472.339 402.218H456.643V413.578H472.339V402.218Z" stroke="black" stroke-miterlimit="10"/>
<path d="M491.684 402.218H475.988V413.578H491.684V402.218Z" stroke="black" stroke-miterlimit="10"/>
<path d="M511.044 402.218H495.349V413.578H511.044V402.218Z" stroke="black" stroke-miterlimit="10"/>
<path d="M433.633 419.825H417.937V431.186H433.633V419.825Z" stroke="black" stroke-miterlimit="10"/>
<path d="M452.978 419.825H437.282V431.186H452.978V419.825Z" stroke="black" stroke-miterlimit="10"/>
<path d="M472.339 419.825H456.643V431.186H472.339V419.825Z" stroke="black" stroke-miterlimit="10"/>
<path d="M491.684 419.825H475.988V431.186H491.684V419.825Z" stroke="black" stroke-miterlimit="10"/>
<path d="M511.044 419.825H495.349V431.186H511.044V419.825Z" stroke="black" stroke-miterlimit="10"/>
<path d="M433.633 437.435H417.937V448.795H433.633V437.435Z" stroke="black" stroke-miterlimit="10"/>
<path d="M452.978 437.435H437.282V448.795H452.978V437.435Z" stroke="black" stroke-miterlimit="10"/>
<path d="M472.339 437.435H456.643V448.795H472.339V437.435Z" stroke="black" stroke-miterlimit="10"/>
<path d="M491.684 437.435H475.988V448.795H491.684V437.435Z" stroke="black" stroke-miterlimit="10"/>
<path d="M511.044 437.435H495.349V448.795H511.044V437.435Z" stroke="black" stroke-miterlimit="10"/>
<path d="M433.633 469.245H417.937V480.606H433.633V469.245Z" stroke="black" stroke-miterlimit="10"/>
<path d="M452.978 469.245H437.282V480.606H452.978V469.245Z" stroke="black" stroke-miterlimit="10"/>
<path d="M472.339 469.245H456.643V480.606H472.339V469.245Z" stroke="black" stroke-miterlimit="10"/>
<path d="M491.684 469.245H475.988V480.606H491.684V469.245Z" stroke="black" stroke-miterlimit="10"/>
<path d="M511.044 469.245H495.349V480.606H511.044V469.245Z" stroke="black" stroke-miterlimit="10"/>
<path d="M1177.25 243.952V400.06H1156.52V593.989H1132.58V395.746H1087.93V187.197H1016.15V403.208H989.026V317.277H928.426V336.195H876.574V591.624H855.842V545.111H799.21V590.841H772.105V360.626H680.384V576.652H654.06" stroke="black" stroke-miterlimit="10"/>
<path d="M1191.08 243.952H1177.25V233.71H1192.47" stroke="black" stroke-miterlimit="10"/>
<path d="M1087.92 400.938H1132.85V395.746H1087.92V400.938Z" stroke="black" stroke-miterlimit="10"/>
<path d="M1016.15 192.246H1088.14V187.197H1016.15V192.246Z" stroke="black" stroke-miterlimit="10"/>
<path d="M972.836 317.261H983.321V306.555H972.836V317.261Z" stroke="black" stroke-miterlimit="10"/>
<path d="M945.587 317.261H950.83V311.045H945.587V317.261Z" stroke="black" stroke-miterlimit="10"/>
<path d="M876.398 342.475H928.41V336.195H876.398V342.475Z" stroke="black" stroke-miterlimit="10"/>
<path d="M680.4 360.626H772.105V355.944H680.4V360.626Z" stroke="black" stroke-miterlimit="10"/>
<path d="M712.206 355.96H748.537V346.629H712.206V355.96Z" stroke="black" stroke-miterlimit="10"/>
<path d="M719.886 346.963V338.335H693.323V355.607" stroke="black" stroke-miterlimit="10"/>
<path d="M894.899 333.623V263.829H810.842V321.655H781.937V223.276H689.132V342.251H664.226" stroke="black" stroke-miterlimit="10"/>
<path d="M621.266 465.602V307.992H664.226V458.636H674.807" stroke="black" stroke-miterlimit="10"/>
<path d="M955.419 299.061V221.95H1012.56" stroke="black" stroke-miterlimit="10"/>
<path d="M1172.6 264.484H1154.45V351.374H1135.61V301.65H1123.98V341.979H1115.48V283.722H1104.16V340.861H1092.25" stroke="black" stroke-miterlimit="10"/>
<path d="M1075.28 215.958H1082.5V201.993H1075.28V215.958Z" stroke="black" stroke-miterlimit="10"/>
<path d="M1062.29 215.958H1069.51V201.993H1062.29V215.958Z" stroke="black" stroke-miterlimit="10"/>
<path d="M1049.29 215.958H1056.51V201.993H1049.29V215.958Z" stroke="black" stroke-miterlimit="10"/>
<path d="M1036.3 215.958H1043.52V201.993H1036.3V215.958Z" stroke="black" stroke-miterlimit="10"/>
<path d="M1023.32 215.958H1030.54V201.993H1023.32V215.958Z" stroke="black" stroke-miterlimit="10"/>
<path d="M1075.28 239.574H1082.5V225.609H1075.28V239.574Z" stroke="black" stroke-miterlimit="10"/>
<path d="M1062.29 239.574H1069.51V225.609H1062.29V239.574Z" stroke="black" stroke-miterlimit="10"/>
<path d="M1049.29 239.574H1056.51V225.609H1049.29V239.574Z" stroke="black" stroke-miterlimit="10"/>
<path d="M1036.3 239.574H1043.52V225.609H1036.3V239.574Z" stroke="black" stroke-miterlimit="10"/>
<path d="M1023.32 239.574H1030.54V225.609H1023.32V239.574Z" stroke="black" stroke-miterlimit="10"/>
<path d="M1075.28 263.159H1082.5V249.194H1075.28V263.159Z" stroke="black" stroke-miterlimit="10"/>
<path d="M1062.29 263.159H1069.51V249.194H1062.29V263.159Z" stroke="black" stroke-miterlimit="10"/>
<path d="M1049.29 263.159H1056.51V249.194H1049.29V263.159Z" stroke="black" stroke-miterlimit="10"/>
<path d="M1036.3 263.159H1043.52V249.194H1036.3V263.159Z" stroke="black" stroke-miterlimit="10"/>
<path d="M1023.32 263.159H1030.54V249.194H1023.32V263.159Z" stroke="black" stroke-miterlimit="10"/>
<path d="M1075.28 286.757H1082.5V272.792H1075.28V286.757Z" stroke="black" stroke-miterlimit="10"/>
<path d="M1062.29 286.757H1069.51V272.792H1062.29V286.757Z" stroke="black" stroke-miterlimit="10"/>
<path d="M1049.29 286.757H1056.51V272.792H1049.29V286.757Z" stroke="black" stroke-miterlimit="10"/>
<path d="M1036.3 286.757H1043.52V272.792H1036.3V286.757Z" stroke="black" stroke-miterlimit="10"/>
<path d="M1023.32 286.757H1030.54V272.792H1023.32V286.757Z" stroke="black" stroke-miterlimit="10"/>
<path d="M1075.28 310.342H1082.5V296.377H1075.28V310.342Z" stroke="black" stroke-miterlimit="10"/>
<path d="M1062.29 310.342H1069.51V296.377H1062.29V310.342Z" stroke="black" stroke-miterlimit="10"/>
<path d="M1049.29 310.342H1056.51V296.377H1049.29V310.342Z" stroke="black" stroke-miterlimit="10"/>
<path d="M1036.3 310.342H1043.52V296.377H1036.3V310.342Z" stroke="black" stroke-miterlimit="10"/>
<path d="M1023.32 310.342H1030.54V296.377H1023.32V310.342Z" stroke="black" stroke-miterlimit="10"/>
<path d="M1075.28 333.957H1082.5V319.992H1075.28V333.957Z" stroke="black" stroke-miterlimit="10"/>
<path d="M1062.29 333.957H1069.51V319.992H1062.29V333.957Z" stroke="black" stroke-miterlimit="10"/>
<path d="M1049.29 333.957H1056.51V319.992H1049.29V333.957Z" stroke="black" stroke-miterlimit="10"/>
<path d="M1036.3 333.957H1043.52V319.992H1036.3V333.957Z" stroke="black" stroke-miterlimit="10"/>
<path d="M1023.32 333.957H1030.54V319.992H1023.32V333.957Z" stroke="black" stroke-miterlimit="10"/>
<path d="M1119.56 425.674H1126.78V411.709H1119.56V425.674Z" stroke="black" stroke-miterlimit="10"/>
<path d="M1106.58 425.674H1113.8V411.709H1106.58V425.674Z" stroke="black" stroke-miterlimit="10"/>
<path d="M1093.57 425.674H1100.79V411.709H1093.57V425.674Z" stroke="black" stroke-miterlimit="10"/>
<path d="M1119.56 448.602H1126.78V434.637H1119.56V448.602Z" stroke="black" stroke-miterlimit="10"/>
<path d="M1106.58 448.602H1113.8V434.637H1106.58V448.602Z" stroke="black" stroke-miterlimit="10"/>
<path d="M1093.57 448.602H1100.79V434.637H1093.57V448.602Z" stroke="black" stroke-miterlimit="10"/>
<path d="M1119.56 471.532H1126.78V457.567H1119.56V471.532Z" stroke="black" stroke-miterlimit="10"/>
<path d="M1106.58 471.532H1113.8V457.567H1106.58V471.532Z" stroke="black" stroke-miterlimit="10"/>
<path d="M1093.57 471.532H1100.79V457.567H1093.57V471.532Z" stroke="black" stroke-miterlimit="10"/>
<path d="M1119.56 494.46H1126.78V480.495H1119.56V494.46Z" stroke="black" stroke-miterlimit="10"/>
<path d="M1106.58 494.46H1113.8V480.495H1106.58V494.46Z" stroke="black" stroke-miterlimit="10"/>
<path d="M1093.57 494.46H1100.79V480.495H1093.57V494.46Z" stroke="black" stroke-miterlimit="10"/>
<path d="M1119.56 517.404H1126.78V503.439H1119.56V517.404Z" stroke="black" stroke-miterlimit="10"/>
<path d="M1106.58 517.404H1113.8V503.439H1106.58V517.404Z" stroke="black" stroke-miterlimit="10"/>
<path d="M1093.57 517.404H1100.79V503.439H1093.57V517.404Z" stroke="black" stroke-miterlimit="10"/>
<path d="M1119.56 540.333H1126.78V526.368H1119.56V540.333Z" stroke="black" stroke-miterlimit="10"/>
<path d="M1106.58 540.333H1113.8V526.368H1106.58V540.333Z" stroke="black" stroke-miterlimit="10"/>
<path d="M1093.57 540.333H1100.79V526.368H1093.57V540.333Z" stroke="black" stroke-miterlimit="10"/>
<path d="M1119.56 563.246H1126.78V549.281H1119.56V563.246Z" stroke="black" stroke-miterlimit="10"/>
<path d="M1106.58 563.246H1113.8V549.281H1106.58V563.246Z" stroke="black" stroke-miterlimit="10"/>
<path d="M1093.57 563.246H1100.79V549.281H1093.57V563.246Z" stroke="black" stroke-miterlimit="10"/>
<path d="M1075.28 357.542H1082.5V343.577H1075.28V357.542Z" stroke="black" stroke-miterlimit="10"/>
<path d="M1062.29 357.542H1069.51V343.577H1062.29V357.542Z" stroke="black" stroke-miterlimit="10"/>
<path d="M1049.29 357.542H1056.51V343.577H1049.29V357.542Z" stroke="black" stroke-miterlimit="10"/>
<path d="M1036.3 357.542H1043.52V343.577H1036.3V357.542Z" stroke="black" stroke-miterlimit="10"/>
<path d="M1023.32 357.542H1030.54V343.577H1023.32V357.542Z" stroke="black" stroke-miterlimit="10"/>
<path d="M1075.28 381.141H1082.5V367.176H1075.28V381.141Z" stroke="black" stroke-miterlimit="10"/>
<path d="M1062.29 381.141H1069.51V367.176H1062.29V381.141Z" stroke="black" stroke-miterlimit="10"/>
<path d="M1049.29 381.141H1056.51V367.176H1049.29V381.141Z" stroke="black" stroke-miterlimit="10"/>
<path d="M1036.3 381.141H1043.52V367.176H1036.3V381.141Z" stroke="black" stroke-miterlimit="10"/>
<path d="M1023.32 381.141H1030.54V367.176H1023.32V381.141Z" stroke="black" stroke-miterlimit="10"/>
<path d="M1075.28 404.726H1082.5V390.761H1075.28V404.726Z" stroke="black" stroke-miterlimit="10"/>
<path d="M1062.29 404.726H1069.51V390.761H1062.29V404.726Z" stroke="black" stroke-miterlimit="10"/>
<path d="M1049.29 404.726H1056.51V390.761H1049.29V404.726Z" stroke="black" stroke-miterlimit="10"/>
<path d="M1036.3 404.726H1043.52V390.761H1036.3V404.726Z" stroke="black" stroke-miterlimit="10"/>
<path d="M1023.32 404.726H1030.54V390.761H1023.32V404.726Z" stroke="black" stroke-miterlimit="10"/>
<path d="M1075.28 428.342H1082.5V414.377H1075.28V428.342Z" stroke="black" stroke-miterlimit="10"/>
<path d="M1062.29 428.342H1069.51V414.377H1062.29V428.342Z" stroke="black" stroke-miterlimit="10"/>
<path d="M1049.29 428.342H1056.51V414.377H1049.29V428.342Z" stroke="black" stroke-miterlimit="10"/>
<path d="M1036.3 428.342H1043.52V414.377H1036.3V428.342Z" stroke="black" stroke-miterlimit="10"/>
<path d="M1023.32 428.342H1030.54V414.377H1023.32V428.342Z" stroke="black" stroke-miterlimit="10"/>
<path d="M1075.28 451.925H1082.5V437.96H1075.28V451.925Z" stroke="black" stroke-miterlimit="10"/>
<path d="M1062.29 451.925H1069.51V437.96H1062.29V451.925Z" stroke="black" stroke-miterlimit="10"/>
<path d="M1049.29 451.925H1056.51V437.96H1049.29V451.925Z" stroke="black" stroke-miterlimit="10"/>
<path d="M1036.3 451.925H1043.52V437.96H1036.3V451.925Z" stroke="black" stroke-miterlimit="10"/>
<path d="M1023.32 451.925H1030.54V437.96H1023.32V451.925Z" stroke="black" stroke-miterlimit="10"/>
<path d="M1075.28 475.511H1082.5V461.546H1075.28V475.511Z" stroke="black" stroke-miterlimit="10"/>
<path d="M1062.29 475.511H1069.51V461.546H1062.29V475.511Z" stroke="black" stroke-miterlimit="10"/>
<path d="M1049.29 475.511H1056.51V461.546H1049.29V475.511Z" stroke="black" stroke-miterlimit="10"/>
<path d="M1036.3 475.511H1043.52V461.546H1036.3V475.511Z" stroke="black" stroke-miterlimit="10"/>
<path d="M1023.32 475.511H1030.54V461.546H1023.32V475.511Z" stroke="black" stroke-miterlimit="10"/>
<path d="M1075.28 499.125H1082.5V485.16H1075.28V499.125Z" stroke="black" stroke-miterlimit="10"/>
<path d="M1062.29 499.125H1069.51V485.16H1062.29V499.125Z" stroke="black" stroke-miterlimit="10"/>
<path d="M1049.29 499.125H1056.51V485.16H1049.29V499.125Z" stroke="black" stroke-miterlimit="10"/>
<path d="M1036.3 499.125H1043.52V485.16H1036.3V499.125Z" stroke="black" stroke-miterlimit="10"/>
<path d="M1023.32 499.125H1030.54V485.16H1023.32V499.125Z" stroke="black" stroke-miterlimit="10"/>
<path d="M1075.28 522.71H1082.5V508.745H1075.28V522.71Z" stroke="black" stroke-miterlimit="10"/>
<path d="M1062.29 522.71H1069.51V508.745H1062.29V522.71Z" stroke="black" stroke-miterlimit="10"/>
<path d="M1049.29 522.71H1056.51V508.745H1049.29V522.71Z" stroke="black" stroke-miterlimit="10"/>
<path d="M1036.3 522.71H1043.52V508.745H1036.3V522.71Z" stroke="black" stroke-miterlimit="10"/>
<path d="M1023.32 522.71H1030.54V508.745H1023.32V522.71Z" stroke="black" stroke-miterlimit="10"/>
<path d="M1075.28 546.31H1082.5V532.345H1075.28V546.31Z" stroke="black" stroke-miterlimit="10"/>
<path d="M1062.29 546.31H1069.51V532.345H1062.29V546.31Z" stroke="black" stroke-miterlimit="10"/>
<path d="M1049.29 546.31H1056.51V532.345H1049.29V546.31Z" stroke="black" stroke-miterlimit="10"/>
<path d="M1036.3 546.31H1043.52V532.345H1036.3V546.31Z" stroke="black" stroke-miterlimit="10"/>
<path d="M1023.32 546.31H1030.54V532.345H1023.32V546.31Z" stroke="black" stroke-miterlimit="10"/>
<path d="M1075.28 570.564H1082.5V556.599H1075.28V570.564Z" stroke="black" stroke-miterlimit="10"/>
<path d="M1062.29 570.564H1069.51V556.599H1062.29V570.564Z" stroke="black" stroke-miterlimit="10"/>
<path d="M1049.29 570.564H1056.51V556.599H1049.29V570.564Z" stroke="black" stroke-miterlimit="10"/>
<path d="M1036.3 570.564H1043.52V556.599H1036.3V570.564Z" stroke="black" stroke-miterlimit="10"/>
<path d="M1023.32 570.564H1030.54V556.599H1023.32V570.564Z" stroke="black" stroke-miterlimit="10"/>
<path d="M1087.93 309.687V594.164" stroke="black" stroke-miterlimit="10"/>
<path d="M977.6 322.981V590.171" stroke="black" stroke-miterlimit="10"/>
<path d="M963.482 322.981V590.171" stroke="black" stroke-miterlimit="10"/>
<path d="M949.364 322.981V590.171" stroke="black" stroke-miterlimit="10"/>
<path d="M935.246 322.981V590.171" stroke="black" stroke-miterlimit="10"/>
<path d="M921.127 349.569V590.171" stroke="black" stroke-miterlimit="10"/>
<path d="M906.993 349.569V590.171" stroke="black" stroke-miterlimit="10"/>
<path d="M892.875 349.569V590.171" stroke="black" stroke-miterlimit="10"/>
<path d="M684.431 375.485H707.553V367.512H684.431V375.485Z" stroke="black" stroke-miterlimit="10"/>
<path d="M684.431 389.45H707.553V381.477H684.431V389.45Z" stroke="black" stroke-miterlimit="10"/>
<path d="M684.431 403.398H707.553V395.425H684.431V403.398Z" stroke="black" stroke-miterlimit="10"/>
<path d="M684.431 417.364H707.553V409.391H684.431V417.364Z" stroke="black" stroke-miterlimit="10"/>
<path d="M684.431 431.314H707.553V423.341H684.431V431.314Z" stroke="black" stroke-miterlimit="10"/>
<path d="M684.431 445.278H707.553V437.305H684.431V445.278Z" stroke="black" stroke-miterlimit="10"/>
<path d="M684.431 459.228H707.553V451.254H684.431V459.228Z" stroke="black" stroke-miterlimit="10"/>
<path d="M684.431 473.193H707.553V465.22H684.431V473.193Z" stroke="black" stroke-miterlimit="10"/>
<path d="M684.431 487.158H707.553V479.185H684.431V487.158Z" stroke="black" stroke-miterlimit="10"/>
<path d="M684.431 501.106H707.553V493.133H684.431V501.106Z" stroke="black" stroke-miterlimit="10"/>
<path d="M684.431 515.072H707.553V507.099H684.431V515.072Z" stroke="black" stroke-miterlimit="10"/>
<path d="M684.431 529.021H707.553V521.047H684.431V529.021Z" stroke="black" stroke-miterlimit="10"/>
<path d="M684.431 542.985H707.553V535.012H684.431V542.985Z" stroke="black" stroke-miterlimit="10"/>
<path d="M684.431 556.936H707.553V548.962H684.431V556.936Z" stroke="black" stroke-miterlimit="10"/>
<path d="M684.431 570.898H707.553V562.925H684.431V570.898Z" stroke="black" stroke-miterlimit="10"/>
<path d="M684.431 584.85H707.553V576.876H684.431V584.85Z" stroke="black" stroke-miterlimit="10"/>
<path d="M684.431 598.83H707.553V590.857H684.431V598.83Z" stroke="black" stroke-miterlimit="10"/>
<path d="M715.186 375.485H738.307V367.512H715.186V375.485Z" stroke="black" stroke-miterlimit="10"/>
<path d="M715.186 389.45H738.307V381.477H715.186V389.45Z" stroke="black" stroke-miterlimit="10"/>
<path d="M715.186 403.398H738.307V395.425H715.186V403.398Z" stroke="black" stroke-miterlimit="10"/>
<path d="M715.186 417.364H738.307V409.391H715.186V417.364Z" stroke="black" stroke-miterlimit="10"/>
<path d="M715.186 431.314H738.307V423.341H715.186V431.314Z" stroke="black" stroke-miterlimit="10"/>
<path d="M715.186 445.278H738.307V437.305H715.186V445.278Z" stroke="black" stroke-miterlimit="10"/>
<path d="M715.186 459.228H738.307V451.254H715.186V459.228Z" stroke="black" stroke-miterlimit="10"/>
<path d="M715.186 473.193H738.307V465.22H715.186V473.193Z" stroke="black" stroke-miterlimit="10"/>
<path d="M715.186 487.158H738.307V479.185H715.186V487.158Z" stroke="black" stroke-miterlimit="10"/>
<path d="M715.186 501.106H738.307V493.133H715.186V501.106Z" stroke="black" stroke-miterlimit="10"/>
<path d="M715.186 515.072H738.307V507.099H715.186V515.072Z" stroke="black" stroke-miterlimit="10"/>
<path d="M715.186 529.021H738.307V521.047H715.186V529.021Z" stroke="black" stroke-miterlimit="10"/>
<path d="M715.186 542.985H738.307V535.012H715.186V542.985Z" stroke="black" stroke-miterlimit="10"/>
<path d="M715.186 556.936H738.307V548.962H715.186V556.936Z" stroke="black" stroke-miterlimit="10"/>
<path d="M715.186 570.898H738.307V562.925H715.186V570.898Z" stroke="black" stroke-miterlimit="10"/>
<path d="M715.186 584.85H738.307V576.876H715.186V584.85Z" stroke="black" stroke-miterlimit="10"/>
<path d="M715.186 598.83H738.307V590.857H715.186V598.83Z" stroke="black" stroke-miterlimit="10"/>
<path d="M745.94 375.485H769.061V367.512H745.94V375.485Z" stroke="black" stroke-miterlimit="10"/>
<path d="M745.94 389.45H769.061V381.477H745.94V389.45Z" stroke="black" stroke-miterlimit="10"/>
<path d="M745.94 403.398H769.061V395.425H745.94V403.398Z" stroke="black" stroke-miterlimit="10"/>
<path d="M745.94 417.364H769.061V409.391H745.94V417.364Z" stroke="black" stroke-miterlimit="10"/>
<path d="M745.94 431.314H769.061V423.341H745.94V431.314Z" stroke="black" stroke-miterlimit="10"/>
<path d="M745.94 445.278H769.061V437.305H745.94V445.278Z" stroke="black" stroke-miterlimit="10"/>
<path d="M745.94 459.228H769.061V451.254H745.94V459.228Z" stroke="black" stroke-miterlimit="10"/>
<path d="M745.94 473.193H769.061V465.22H745.94V473.193Z" stroke="black" stroke-miterlimit="10"/>
<path d="M745.94 487.158H769.061V479.185H745.94V487.158Z" stroke="black" stroke-miterlimit="10"/>
<path d="M745.94 501.106H769.061V493.133H745.94V501.106Z" stroke="black" stroke-miterlimit="10"/>
<path d="M745.94 515.072H769.061V507.099H745.94V515.072Z" stroke="black" stroke-miterlimit="10"/>
<path d="M745.94 529.021H769.061V521.047H745.94V529.021Z" stroke="black" stroke-miterlimit="10"/>
<path d="M745.94 542.985H769.061V535.012H745.94V542.985Z" stroke="black" stroke-miterlimit="10"/>
<path d="M745.94 556.936H769.061V548.962H745.94V556.936Z" stroke="black" stroke-miterlimit="10"/>
<path d="M745.94 570.898H769.061V562.925H745.94V570.898Z" stroke="black" stroke-miterlimit="10"/>
<path d="M745.94 584.85H769.061V576.876H745.94V584.85Z" stroke="black" stroke-miterlimit="10"/>
<path d="M745.94 598.83H769.061V590.857H745.94V598.83Z" stroke="black" stroke-miterlimit="10"/>
<path d="M805.472 544.967H847.827V523.029H805.472V544.967Z" stroke="black" stroke-miterlimit="10"/>
<path d="M815.559 523.046H837.74V484.49H815.559V523.046Z" stroke="black" stroke-miterlimit="10"/>
<path d="M1016.15 403.209V593.638" stroke="black" stroke-miterlimit="10"/>
<path d="M772.838 382.34H875.697" stroke="black" stroke-miterlimit="10"/>
<path d="M772.838 393.701H875.697" stroke="black" stroke-miterlimit="10"/>
<path d="M855.412 413.577H871.108V402.217H855.412V413.577Z" stroke="black" stroke-miterlimit="10"/>
<path d="M836.051 413.577H851.747V402.217H836.051V413.577Z" stroke="black" stroke-miterlimit="10"/>
<path d="M816.707 413.577H832.402V402.217H816.707V413.577Z" stroke="black" stroke-miterlimit="10"/>
<path d="M797.346 413.577H813.041V402.217H797.346V413.577Z" stroke="black" stroke-miterlimit="10"/>
<path d="M778.001 413.577H793.697V402.217H778.001V413.577Z" stroke="black" stroke-miterlimit="10"/>
<path d="M855.412 431.171H871.108V419.81H855.412V431.171Z" stroke="black" stroke-miterlimit="10"/>
<path d="M836.051 431.171H851.747V419.81H836.051V431.171Z" stroke="black" stroke-miterlimit="10"/>
<path d="M816.707 431.171H832.402V419.81H816.707V431.171Z" stroke="black" stroke-miterlimit="10"/>
<path d="M797.345 431.171H813.041V419.81H797.345V431.171Z" stroke="black" stroke-miterlimit="10"/>
<path d="M778.001 431.171H793.697V419.81H778.001V431.171Z" stroke="black" stroke-miterlimit="10"/>
<path d="M855.412 448.793H871.108V437.432H855.412V448.793Z" stroke="black" stroke-miterlimit="10"/>
<path d="M836.051 448.793H851.747V437.432H836.051V448.793Z" stroke="black" stroke-miterlimit="10"/>
<path d="M816.707 448.793H832.402V437.432H816.707V448.793Z" stroke="black" stroke-miterlimit="10"/>
<path d="M797.345 448.793H813.041V437.432H797.345V448.793Z" stroke="black" stroke-miterlimit="10"/>
<path d="M778.001 448.793H793.697V437.432H778.001V448.793Z" stroke="black" stroke-miterlimit="10"/>
<path d="M855.412 480.606H871.108V469.246H855.412V480.606Z" stroke="black" stroke-miterlimit="10"/>
<path d="M836.051 480.606H851.747V469.246H836.051V480.606Z" stroke="black" stroke-miterlimit="10"/>
<path d="M816.707 480.606H832.402V469.246H816.707V480.606Z" stroke="black" stroke-miterlimit="10"/>
<path d="M797.346 480.606H813.041V469.246H797.346V480.606Z" stroke="black" stroke-miterlimit="10"/>
<path d="M778.001 480.606H793.697V469.246H778.001V480.606Z" stroke="black" stroke-miterlimit="10"/>
<path d="M881.975 361.312H985.297" stroke="black" stroke-miterlimit="10"/>
<path d="M881.975 381.254H985.297" stroke="black" stroke-miterlimit="10"/>
<path d="M881.975 401.212H985.297" stroke="black" stroke-miterlimit="10"/>
<path d="M881.975 421.151H985.297" stroke="black" stroke-miterlimit="10"/>
<path d="M881.975 441.108H985.297" stroke="black" stroke-miterlimit="10"/>
<path d="M881.975 461.049H985.297" stroke="black" stroke-miterlimit="10"/>
<path d="M881.975 481.006H985.297" stroke="black" stroke-miterlimit="10"/>
<path d="M881.975 500.947H985.297" stroke="black" stroke-miterlimit="10"/>
<path d="M881.975 520.903H985.297" stroke="black" stroke-miterlimit="10"/>
<path d="M881.975 540.846H985.297" stroke="black" stroke-miterlimit="10"/>
<path d="M881.975 560.802H985.297" stroke="black" stroke-miterlimit="10"/>
<path d="M881.975 580.758H985.297" stroke="black" stroke-miterlimit="10"/>
<path d="M934.353 342.313H985.297" stroke="black" stroke-miterlimit="10"/>
</g>
<path d="M731.71 442.032H89.7915V712.896H731.71V442.032Z" fill="white" stroke="#263238" stroke-linecap="round" stroke-linejoin="round"/>
<path d="M729.83 449.191V712.881H1170.95V449.191L950.288 391.669L729.83 449.191Z" fill="#EBEBEB" stroke="#263238" stroke-linecap="round" stroke-linejoin="round"/>
<path d="M731.71 442.032H89.7915V497.573H731.71V442.032Z" fill="#C7C7C7" stroke="#263238" stroke-linecap="round" stroke-linejoin="round"/>
<path d="M1170.95 497.573V449.191L950.288 391.669L729.83 449.191V497.573H1170.95Z" fill="#A1A1A1" stroke="#263238" stroke-linecap="round" stroke-linejoin="round"/>
<path d="M759.596 483.065V447.162L949.38 397.645L1148.95 449.654V483.065H1170.05V442.033L949.38 384.511L728.922 442.033V483.065H759.596Z" fill="#263238" stroke="#263238" stroke-linecap="round" stroke-linejoin="round"/>
<path d="M769.731 483.065V447.162L959.515 397.645L1159.08 449.654V483.065H1180.18V442.033L959.515 384.511L739.056 442.033V483.065H769.731Z" fill="#92E3A9" stroke="#263238" stroke-linecap="round" stroke-linejoin="round"/>
<path d="M739.47 442.032H78.7485V483.064H739.47V442.032Z" fill="#92E3A9" stroke="#263238" stroke-linecap="round" stroke-linejoin="round"/>
<path d="M299 384.511L78.9558 442.033H739.471L959.515 384.511H299Z" fill="#92E3A9" stroke="#263238" stroke-linecap="round" stroke-linejoin="round"/>
<path d="M839.924 554.375H753.812V615.732H839.924V554.375Z" fill="#263238" stroke="#263238" stroke-linecap="round" stroke-linejoin="round"/>
<path d="M945.795 554.375H859.683V615.732H945.795V554.375Z" fill="#263238" stroke="#263238" stroke-linecap="round" stroke-linejoin="round"/>
<path d="M1050.66 554.375H964.55V615.732H1050.66V554.375Z" fill="#263238" stroke="#263238" stroke-linecap="round" stroke-linejoin="round"/>
<path d="M1156.53 554.375H1070.42V615.732H1156.53V554.375Z" fill="#263238" stroke="#263238" stroke-linecap="round" stroke-linejoin="round"/>
<path d="M691.459 554.375H587.627V712.88H691.459V554.375Z" fill="white" stroke="#263238" stroke-linecap="round" stroke-linejoin="round"/>
<path d="M691.459 554.375H594.479V712.88H691.459V554.375Z" fill="#263238" stroke="#263238" stroke-linecap="round" stroke-linejoin="round"/>
<path d="M396.84 554.375H293.008V712.88H396.84V554.375Z" fill="white" stroke="#263238" stroke-linecap="round" stroke-linejoin="round"/>
<path d="M396.856 554.375H299.876V712.88H396.856V554.375Z" fill="#263238" stroke="#263238" stroke-linecap="round" stroke-linejoin="round"/>
<path d="M249.538 554.375H145.707V712.88H249.538V554.375Z" fill="white" stroke="#263238" stroke-linecap="round" stroke-linejoin="round"/>
<path d="M249.538 554.375H152.559V712.88H249.538V554.375Z" fill="#C7C7C7" stroke="#263238" stroke-linecap="round" stroke-linejoin="round"/>
<path d="M152.989 562.364H248.598" stroke="#263238" stroke-linecap="round" stroke-linejoin="round"/>
<path d="M152.989 572.463H248.598" stroke="#263238" stroke-linecap="round" stroke-linejoin="round"/>
<path d="M152.989 582.547H248.598" stroke="#263238" stroke-linecap="round" stroke-linejoin="round"/>
<path d="M152.989 592.645H248.598" stroke="#263238" stroke-linecap="round" stroke-linejoin="round"/>
<path d="M152.989 602.743H248.598" stroke="#263238" stroke-linecap="round" stroke-linejoin="round"/>
<path d="M152.989 612.824H248.598" stroke="#263238" stroke-linecap="round" stroke-linejoin="round"/>
<path d="M152.989 622.923H248.598" stroke="#263238" stroke-linecap="round" stroke-linejoin="round"/>
<path d="M152.989 633.005H248.598" stroke="#263238" stroke-linecap="round" stroke-linejoin="round"/>
<path d="M152.989 643.103H248.598" stroke="#263238" stroke-linecap="round" stroke-linejoin="round"/>
<path d="M152.989 653.202H248.598" stroke="#263238" stroke-linecap="round" stroke-linejoin="round"/>
<path d="M152.989 663.283H248.598" stroke="#263238" stroke-linecap="round" stroke-linejoin="round"/>
<path d="M152.989 673.383H248.598" stroke="#263238" stroke-linecap="round" stroke-linejoin="round"/>
<path d="M152.989 683.465H248.598" stroke="#263238" stroke-linecap="round" stroke-linejoin="round"/>
<path d="M152.989 693.562H248.598" stroke="#263238" stroke-linecap="round" stroke-linejoin="round"/>
<path d="M152.989 703.662H248.598" stroke="#263238" stroke-linecap="round" stroke-linejoin="round"/>
<path d="M542.022 554.375H438.191V712.88H542.022V554.375Z" fill="white" stroke="#263238" stroke-linecap="round" stroke-linejoin="round"/>
<path d="M542.022 554.375H445.043V712.88H542.022V554.375Z" fill="#C7C7C7" stroke="#263238" stroke-linecap="round" stroke-linejoin="round"/>
<path d="M445.473 562.364H541.082" stroke="#263238" stroke-linecap="round" stroke-linejoin="round"/>
<path d="M445.473 572.463H541.082" stroke="#263238" stroke-linecap="round" stroke-linejoin="round"/>
<path d="M445.473 582.547H541.082" stroke="#263238" stroke-linecap="round" stroke-linejoin="round"/>
<path d="M445.473 592.645H541.082" stroke="#263238" stroke-linecap="round" stroke-linejoin="round"/>
<path d="M445.473 602.743H541.082" stroke="#263238" stroke-linecap="round" stroke-linejoin="round"/>
<path d="M445.473 612.824H541.082" stroke="#263238" stroke-linecap="round" stroke-linejoin="round"/>
<path d="M445.473 622.923H541.082" stroke="#263238" stroke-linecap="round" stroke-linejoin="round"/>
<path d="M445.473 633.005H541.082" stroke="#263238" stroke-linecap="round" stroke-linejoin="round"/>
<path d="M445.473 643.103H541.082" stroke="#263238" stroke-linecap="round" stroke-linejoin="round"/>
<path d="M445.473 653.202H541.082" stroke="#263238" stroke-linecap="round" stroke-linejoin="round"/>
<path d="M445.473 663.283H541.082" stroke="#263238" stroke-linecap="round" stroke-linejoin="round"/>
<path d="M445.473 673.383H541.082" stroke="#263238" stroke-linecap="round" stroke-linejoin="round"/>
<path d="M445.473 683.465H541.082" stroke="#263238" stroke-linecap="round" stroke-linejoin="round"/>
<path d="M445.473 693.562H541.082" stroke="#263238" stroke-linecap="round" stroke-linejoin="round"/>
<path d="M445.473 703.662H541.082" stroke="#263238" stroke-linecap="round" stroke-linejoin="round"/>
<path d="M950.32 664.451H899.52V707.561H950.32V664.451Z" fill="white" stroke="#263238" stroke-linecap="round" stroke-linejoin="round"/>
<path d="M969.872 664.451H919.072V707.561H969.872V664.451Z" fill="white" stroke="#263238" stroke-linecap="round" stroke-linejoin="round"/>
<path d="M952.169 621.103H901.368V664.212H952.169V621.103Z" fill="white" stroke="#263238" stroke-linecap="round" stroke-linejoin="round"/>
<path d="M971.705 621.103H920.904V664.212H971.705V621.103Z" fill="white" stroke="#263238" stroke-linecap="round" stroke-linejoin="round"/>
<path d="M952.71 621.103H939.915V646.109H952.71V621.103Z" fill="white" stroke="#263238" stroke-linecap="round" stroke-linejoin="round"/>
<path d="M889.592 621.103H838.792V664.212H889.592V621.103Z" fill="white" stroke="#263238" stroke-linecap="round" stroke-linejoin="round"/>
<path d="M909.129 621.103H858.328V664.212H909.129V621.103Z" fill="white" stroke="#263238" stroke-linecap="round" stroke-linejoin="round"/>
<path d="M890.134 621.103H877.339V646.109H890.134V621.103Z" fill="white" stroke="#263238" stroke-linecap="round" stroke-linejoin="round"/>
<path d="M898.93 707.434H895.823V712.898H898.93V707.434Z" fill="white" stroke="#263238" stroke-linecap="round" stroke-linejoin="round"/>
<path d="M942.496 707.434H939.389V712.898H942.496V707.434Z" fill="white" stroke="#263238" stroke-linecap="round" stroke-linejoin="round"/>
<path d="M948.312 707.434H890.867V711.077H948.312V707.434Z" fill="white" stroke="#263238" stroke-linecap="round" stroke-linejoin="round"/>
<path d="M986.588 707.434H929.143V711.077H986.588V707.434Z" fill="white" stroke="#263238" stroke-linecap="round" stroke-linejoin="round"/>
<path d="M937.811 707.434H934.704V712.898H937.811V707.434Z" fill="white" stroke="#263238" stroke-linecap="round" stroke-linejoin="round"/>
<path d="M981.377 707.434H978.27V712.898H981.377V707.434Z" fill="white" stroke="#263238" stroke-linecap="round" stroke-linejoin="round"/>
<path d="M888.206 664.451H837.406V707.561H888.206V664.451Z" fill="white" stroke="#263238" stroke-linecap="round" stroke-linejoin="round"/>
<path d="M907.742 664.451H856.942V707.561H907.742V664.451Z" fill="white" stroke="#263238" stroke-linecap="round" stroke-linejoin="round"/>
<path d="M836.8 707.434H833.693V712.898H836.8V707.434Z" fill="white" stroke="#263238" stroke-linecap="round" stroke-linejoin="round"/>
<path d="M880.366 707.434H877.259V712.898H880.366V707.434Z" fill="white" stroke="#263238" stroke-linecap="round" stroke-linejoin="round"/>
<path d="M886.182 707.434H828.737V711.077H886.182V707.434Z" fill="white" stroke="#263238" stroke-linecap="round" stroke-linejoin="round"/>
<path d="M924.458 707.434H867.013V711.077H924.458V707.434Z" fill="white" stroke="#263238" stroke-linecap="round" stroke-linejoin="round"/>
<path d="M875.681 707.434H872.574V712.898H875.681V707.434Z" fill="white" stroke="#263238" stroke-linecap="round" stroke-linejoin="round"/>
<path d="M919.247 707.434H916.14V712.898H919.247V707.434Z" fill="white" stroke="#263238" stroke-linecap="round" stroke-linejoin="round"/>
<path d="M1044.22 637.928H1038.69V706.794H1044.22V637.928Z" fill="#263238" stroke="#263238" stroke-linecap="round" stroke-linejoin="round"/>
<path d="M1052.54 637.736H1039.95V639.59H1052.54V637.736Z" fill="#263238" stroke="#263238" stroke-linecap="round" stroke-linejoin="round"/>
<path d="M1051.4 639.574H1050.52V652.692H1051.4V639.574Z" fill="#263238" stroke="#263238" stroke-linecap="round" stroke-linejoin="round"/>
<path d="M1051.28 650.455H1040.62V652.309H1051.28V650.455Z" fill="#263238" stroke="#263238" stroke-linecap="round" stroke-linejoin="round"/>
<path d="M1054.22 683.371L1051.89 689.156L1064.65 704.575H1073.4L1068.19 686.919L1057.2 683.18L1054.22 683.371Z" fill="#A6A6A6" stroke="#263238" stroke-linecap="round" stroke-linejoin="round"/>
<path d="M1108.81 654.418H1104.98V668.99H1108.81V654.418Z" fill="#263238" stroke="#263238" stroke-linecap="round" stroke-linejoin="round"/>
<path d="M1106.08 654.146C1106.08 654.146 1106.34 651.254 1108.33 650.551C1110.58 649.891 1112.86 649.357 1115.17 648.953L1113.19 651.046L1109.17 651.893C1109.17 651.893 1108.17 652.229 1107.9 652.868C1107.72 653.331 1107.59 653.814 1107.52 654.306L1106.08 654.146Z" fill="#263238" stroke="#263238" stroke-linecap="round" stroke-linejoin="round"/>
<path d="M1105.97 669.213V670.939H1107.31V669.117L1105.97 669.213Z" fill="#263238" stroke="#263238" stroke-linecap="round" stroke-linejoin="round"/>
<path d="M1104.06 671.035H1128.18C1129.08 671.089 1129.94 671.411 1130.66 671.961C1131.37 672.511 1131.9 673.263 1132.18 674.119C1132.93 677.011 1133.95 689.442 1133.95 689.442L1134.32 704.654H1103.31V686.918H1105.78L1104.06 671.035Z" fill="#92E3A9" stroke="#263238" stroke-linecap="round" stroke-linejoin="round"/>
<path d="M1103.31 704.67H1134.32L1133.99 690.785H1103.31V704.67Z" fill="#263238" stroke="#263238" stroke-linecap="round" stroke-linejoin="round"/>
<path d="M1129.01 692.814C1128.38 691.689 1127.52 690.704 1126.5 689.918C1125.47 689.133 1124.3 688.564 1123.05 688.244H1113.75C1108.19 689.155 1105.03 694.955 1103.36 699.717V704.67H1131.28C1131.28 703.248 1131.44 696.473 1129.01 692.814Z" fill="#A6A6A6" stroke="#263238" stroke-linecap="round" stroke-linejoin="round"/>
<path d="M1065.94 687.141L1056.38 683.131H1046.23L1046.34 684.106H1056.49L1066.33 688.228L1071.82 705.98H1104.22C1104.22 705.98 1104.33 692.654 1113.62 688.228V685.304H1066.61L1065.94 687.141Z" fill="#92E3A9" stroke="#263238" stroke-linecap="round" stroke-linejoin="round"/>
<path d="M1049.67 675.952L1048.93 677.961L1056.39 680.723L1057.13 678.715L1049.67 675.952Z" fill="#263238" stroke="#263238" stroke-linecap="round" stroke-linejoin="round"/>
<path d="M1049.37 676.372L1048.99 677.378L1042.87 674.87L1043.25 673.863L1049.37 676.372Z" fill="white" stroke="#263238" stroke-linecap="round" stroke-linejoin="round"/>
<path d="M1106.67 684.968L1101.89 641.986H1103.07L1102.75 640.148H1064.02L1064.78 641.746H1068.45C1068.45 641.746 1064.24 644.558 1063.04 648.138C1061.85 651.717 1053.48 683.29 1053.48 683.29H1056.51L1066.23 647.882C1066.23 647.882 1068.83 644.095 1071.74 643.232C1074.66 642.369 1098.63 642.897 1098.63 642.897L1103.6 685.239L1106.67 684.968Z" fill="#263238" stroke="#263238" stroke-linecap="round" stroke-linejoin="round"/>
<path d="M1059.92 670.251C1059.92 670.251 1065.32 663.317 1066.5 662.773C1066.92 662.526 1067.39 662.379 1067.88 662.343C1068.37 662.307 1068.85 662.383 1069.31 662.566C1070.61 662.885 1070.72 663.86 1069.96 665.154C1069.19 666.448 1064.67 674.358 1064.67 676.531C1064.67 678.704 1065.32 679.231 1066.18 680.973C1067.04 682.714 1065.96 687.14 1065.96 687.14L1056.4 683.242L1059.92 670.251Z" fill="#263238" stroke="#263238" stroke-linecap="round" stroke-linejoin="round"/>
<path d="M1066.99 658.668L1074.6 663.158" stroke="#263238" stroke-linecap="round" stroke-linejoin="round"/>
<path d="M1068.76 660.074L1068.88 662.247L1069.96 662.791L1070.72 661.273" fill="white"/>
<path d="M1068.76 660.074L1068.88 662.247L1069.96 662.791L1070.72 661.273" stroke="#263238" stroke-linecap="round" stroke-linejoin="round"/>
<path d="M1069.96 662.791L1070.66 663.382L1072.87 662.344" fill="white"/>
<path d="M1069.96 662.791L1070.66 663.382L1072.87 662.344" stroke="#263238" stroke-linecap="round" stroke-linejoin="round"/>
<path d="M1074.07 662.293L1074.6 661.432" stroke="#263238" stroke-linecap="round" stroke-linejoin="round"/>
<path d="M1101.67 670.795C1101.67 670.795 1080.95 673.144 1080 674.182C1078.48 676.344 1077.52 678.856 1077.23 681.484V683.913H1066.74L1066.61 685.303L1103.55 685.191L1101.67 670.795Z" fill="#263238" stroke="#263238" stroke-linecap="round" stroke-linejoin="round"/>
<path d="M1096.04 667.057L1097.72 658.381C1097.72 658.381 1096.44 658.621 1094.53 659.084C1093.51 659.325 1092.57 659.852 1091.83 660.604C1091.09 661.356 1090.58 662.303 1090.36 663.334C1089.67 665.779 1091.95 668.447 1091.95 668.447C1091.95 668.447 1091.71 669.502 1091.47 669.662C1091.23 669.821 1079.01 671.259 1079.01 671.259V673.88L1095.71 671.211C1095.71 671.211 1096.7 667.888 1096.75 667.536C1096.79 667.185 1096.04 667.057 1096.04 667.057ZM1094.24 666.354C1093.73 666.242 1093.25 665.996 1092.86 665.639C1092.47 665.283 1092.19 664.829 1092.03 664.325C1091.69 662.727 1094.29 660.426 1095.74 660.314L1094.24 666.354Z" fill="#263238" stroke="#263238" stroke-linecap="round" stroke-linejoin="round"/>
<path d="M1128.84 702.049C1128.84 699.902 1128.21 697.803 1127.02 696.017C1125.84 694.231 1124.15 692.838 1122.17 692.014C1120.19 691.19 1118.02 690.973 1115.92 691.39C1113.82 691.807 1111.89 692.839 1110.37 694.356C1108.86 695.872 1107.83 697.805 1107.41 699.91C1106.99 702.015 1107.2 704.198 1108.02 706.181C1108.84 708.164 1110.23 709.86 1112.01 711.053C1113.79 712.245 1115.88 712.882 1118.02 712.882C1119.44 712.884 1120.84 712.606 1122.16 712.062C1123.47 711.519 1124.66 710.721 1125.67 709.715C1126.67 708.709 1127.47 707.514 1128.01 706.198C1128.56 704.883 1128.84 703.473 1128.84 702.049Z" fill="#263238" stroke="#263238" stroke-linecap="round" stroke-linejoin="round"/>
<path d="M1118.02 707.609C1121.08 707.609 1123.56 705.12 1123.56 702.049C1123.56 698.978 1121.08 696.488 1118.02 696.488C1114.96 696.488 1112.47 698.978 1112.47 702.049C1112.47 705.12 1114.96 707.609 1118.02 707.609Z" fill="white" stroke="#263238" stroke-linecap="round" stroke-linejoin="round"/>
<path d="M1062.14 709.077C1067.22 703.985 1067.22 695.73 1062.14 690.638C1057.06 685.546 1048.83 685.546 1043.75 690.638C1038.67 695.73 1038.67 703.985 1043.75 709.077C1048.83 714.169 1057.06 714.169 1062.14 709.077Z" fill="#263238" stroke="#263238" stroke-linecap="round" stroke-linejoin="round"/>
<path d="M1059.57 699.843C1059.57 698.519 1059.18 697.225 1058.44 696.124C1057.71 695.023 1056.67 694.165 1055.45 693.658C1054.23 693.151 1052.89 693.019 1051.59 693.277C1050.29 693.535 1049.11 694.173 1048.17 695.109C1047.24 696.046 1046.6 697.239 1046.34 698.537C1046.09 699.836 1046.22 701.182 1046.72 702.405C1047.23 703.629 1048.09 704.674 1049.18 705.41C1050.28 706.146 1051.57 706.538 1052.89 706.538C1054.66 706.538 1056.36 705.833 1057.61 704.577C1058.87 703.322 1059.57 701.619 1059.57 699.843Z" fill="white" stroke="#263238" stroke-linecap="round" stroke-linejoin="round"/>
<path d="M1047.89 639.078V643.504C1047.89 644.064 1047.76 644.617 1047.52 645.122C1047.29 645.628 1046.94 646.074 1046.5 646.428C1045.83 646.954 1045.01 647.24 1044.16 647.242H1039.95V638.486L1047.89 639.078Z" fill="#263238" stroke="#263238" stroke-linecap="round" stroke-linejoin="round"/>
<path d="M1035.49 665.906H1032.88V702.529H1035.49V665.906Z" fill="#263238" stroke="#263238" stroke-linecap="round" stroke-linejoin="round"/>
<path d="M1038.2 685.223H1035.68V701.537H1038.2V685.223Z" fill="#263238" stroke="#263238" stroke-linecap="round" stroke-linejoin="round"/>
<path d="M1003.24 701.266H1032.88V702.528H1011.46L1003.24 701.266Z" fill="#263238" stroke="#263238" stroke-linecap="round" stroke-linejoin="round"/>
<path d="M37.9711 712.881H1211.08" stroke="#263238" stroke-linecap="round" stroke-linejoin="round"/>
<path d="M141.39 696.38C141.39 696.38 148.71 696.03 152.39 699.69" stroke="#263238" stroke-width="6" stroke-linecap="round" stroke-linejoin="round"/>
<path d="M214.44 829.38C214.414 826.611 214.751 823.851 215.44 821.17V811.84H223.35C228.29 811.84 232.29 819.69 232.29 829.38C232.29 839.07 228.29 846.91 223.35 846.91H215.44V837.58C214.751 834.902 214.415 832.145 214.44 829.38Z" fill="#263238" stroke="#263238" stroke-miterlimit="10"/>
<path d="M215.48 846.912C220.423 846.912 224.43 839.063 224.43 829.382C224.43 819.7 220.423 811.852 215.48 811.852C210.537 811.852 206.53 819.7 206.53 829.382C206.53 839.063 210.537 846.912 215.48 846.912Z" fill="#263238" stroke="#263238" stroke-miterlimit="10"/>
<path d="M214.75 841.551C217.826 841.551 220.32 836.142 220.32 829.471C220.32 822.799 217.826 817.391 214.75 817.391C211.674 817.391 209.18 822.799 209.18 829.471C209.18 836.142 211.674 841.551 214.75 841.551Z" fill="#828282" stroke="#263238" stroke-miterlimit="10"/>
<path d="M152.36 699.691C153.028 700.372 153.55 701.181 153.894 702.07C154.237 702.959 154.396 703.909 154.36 704.861V831.071C154.373 832.654 155.011 834.167 156.135 835.282C157.259 836.396 158.777 837.021 160.36 837.021H240.36" stroke="#263238" stroke-width="4" stroke-linecap="round" stroke-linejoin="round"/>
<path d="M203.22 696.38C203.22 696.38 210.53 696.03 214.22 699.69" stroke="#263238" stroke-width="6" stroke-linecap="round" stroke-linejoin="round"/>
<path d="M214.19 699.691C214.858 700.372 215.38 701.181 215.724 702.07C216.067 702.959 216.226 703.909 216.19 704.861V836.511" stroke="#263238" stroke-width="4" stroke-linecap="round" stroke-linejoin="round"/>
<path d="M155.1 729.852H216.75" stroke="#263238" stroke-width="4" stroke-linecap="round" stroke-linejoin="round"/>
<path d="M186.82 729.59V836.26" stroke="#263238" stroke-width="4" stroke-linecap="round" stroke-linejoin="round"/>
<path d="M145.42 821.151L154.53 803.291" stroke="#263238" stroke-width="4" stroke-linecap="round" stroke-linejoin="round"/>
<path d="M154.35 829.352H145.78" stroke="#263238" stroke-width="4" stroke-linecap="round" stroke-linejoin="round"/>
<path d="M130.76 829.38C130.734 826.611 131.071 823.851 131.76 821.17V811.84H139.76C144.7 811.84 148.7 819.69 148.7 829.38C148.7 839.07 144.7 846.91 139.76 846.91H131.84V837.58C131.124 834.905 130.761 832.149 130.76 829.38Z" fill="#263238" stroke="#263238" stroke-miterlimit="10"/>
<path d="M131.84 846.912C136.783 846.912 140.79 839.063 140.79 829.382C140.79 819.7 136.783 811.852 131.84 811.852C126.897 811.852 122.89 819.7 122.89 829.382C122.89 839.063 126.897 846.912 131.84 846.912Z" fill="#263238" stroke="#263238" stroke-miterlimit="10"/>
<path d="M125.54 829.48C125.54 836.15 128.03 841.55 131.11 841.55C134.19 841.55 136.68 836.15 136.68 829.48C136.68 822.81 134.19 817.4 131.11 817.4C128.03 817.4 125.54 822.8 125.54 829.48Z" fill="white" stroke="#263238" stroke-miterlimit="10"/>
<path d="M533.3 817.51L594.03 819.69L677.57 818.88L709.64 817.31C709.64 817.31 716.21 799.69 713.64 790.24C711.07 780.79 707.83 776.78 700.55 776.78C693.27 776.78 680.84 782.71 680.33 787.02C679.82 791.33 676.2 796.24 676.2 796.24H589.67C589.67 796.24 586.39 777.51 574.76 770.97C563.13 764.43 547.85 764.78 539.85 770.97C531.85 777.16 533.3 817.51 533.3 817.51Z" fill="#263238" stroke="#263238" stroke-miterlimit="10"/>
<path d="M695.63 816.97C695.653 812.246 695.058 807.539 693.86 802.97V787.02H680.35C671.91 787.02 665.07 800.43 665.07 817.02C665.07 833.61 671.91 846.96 680.35 846.96H693.86V830.98C695.059 826.407 695.654 821.697 695.63 816.97Z" fill="#263238" stroke="#263238" stroke-miterlimit="10"/>
<path d="M693.86 846.912C702.299 846.912 709.14 833.503 709.14 816.962C709.14 800.421 702.299 787.012 693.86 787.012C685.421 787.012 678.58 800.421 678.58 816.962C678.58 833.503 685.421 846.912 693.86 846.912Z" fill="#616161" stroke="#263238" stroke-miterlimit="10"/>
<path d="M695.1 837.76C700.358 837.76 704.62 828.524 704.62 817.13C704.62 805.736 700.358 796.5 695.1 796.5C689.842 796.5 685.58 805.736 685.58 817.13C685.58 828.524 689.842 837.76 695.1 837.76Z" fill="#E0E0E0" stroke="#263238" stroke-miterlimit="10"/>
<path d="M574.76 787.02H561.26C552.82 787.02 545.97 800.43 545.97 817.02C545.97 833.61 552.82 846.96 561.26 846.96H574.76C583.2 846.96 590.04 833.55 590.04 817.02C590.04 800.49 583.15 787.02 574.76 787.02Z" fill="#263238" stroke="#263238" stroke-miterlimit="10"/>
<path d="M421.76 787.02H407.04C397.86 787.02 390.41 800.43 390.41 817.02C390.41 833.61 397.86 846.96 407.04 846.96H421.76C430.94 846.96 438.38 833.55 438.38 817.02C438.38 800.49 430.91 787.02 421.76 787.02Z" fill="#263238" stroke="#263238" stroke-miterlimit="10"/>
<path d="M564.42 812.111C564.451 806.614 563.758 801.137 562.36 795.821V777.301H546.66C536.86 777.301 528.9 792.881 528.9 812.111C528.9 831.341 536.9 846.911 546.66 846.911H562.36V828.391C563.758 823.078 564.451 817.604 564.42 812.111Z" fill="#263238" stroke="#263238" stroke-miterlimit="10"/>
<path d="M562.36 846.909C572.169 846.909 580.12 831.324 580.12 812.099C580.12 792.874 572.169 777.289 562.36 777.289C552.551 777.289 544.6 792.874 544.6 812.099C544.6 831.324 552.551 846.909 562.36 846.909Z" fill="#616161" stroke="#263238" stroke-miterlimit="10"/>
<path d="M563.8 836.28C569.908 836.28 574.86 825.544 574.86 812.3C574.86 799.057 569.908 788.32 563.8 788.32C557.692 788.32 552.74 799.057 552.74 812.3C552.74 825.544 557.692 836.28 563.8 836.28Z" fill="#E0E0E0" stroke="#263238" stroke-miterlimit="10"/>
<path d="M711.68 766.04C708.85 757.19 649.06 633.71 644.46 628.75C639.86 623.79 554.23 597.25 554.23 597.25C554.23 597.25 514.96 585.58 502.23 584.87C489.5 584.16 380.16 593.36 378.04 594.07C375.92 594.78 361.76 638.66 357.86 657.77C353.96 676.88 352.2 715.77 352.2 754.01C352.2 792.25 357.51 820.17 363.52 820.17C369.53 820.17 526.63 824.77 529.11 824.77C531.59 824.77 535.11 821.94 541.49 813.45C547.87 804.96 553.17 779.45 560.25 776.3C567.33 773.15 575.11 774.88 579 783.73C582.89 792.58 581.83 820.17 581.83 820.17C581.83 820.17 639.4 819.85 677.57 818.88C678.98 815.06 682.81 804.88 687.57 793.21C693.63 778.43 703.86 779.95 708.41 783.74C712.5 787.15 711.98 805.65 709.62 817.31C709.975 817.288 710.318 817.178 710.62 816.99C712.39 814.51 714.16 807.79 715.57 798.94C716.98 790.09 714.51 774.88 711.68 766.04Z" fill="white" stroke="#263238" stroke-miterlimit="10"/>
<path d="M581.83 820.17C581.83 820.17 639.4 819.85 677.57 818.88C678.98 815.06 682.81 804.88 687.57 793.21C693.63 778.43 703.86 779.95 708.41 783.74C712.5 787.15 711.98 805.65 709.62 817.31C709.975 817.288 710.318 817.178 710.62 816.99C712.39 814.51 714.16 807.79 715.57 798.94C716.98 790.09 714.51 774.88 711.68 766.04C708.85 757.2 649.06 633.71 644.46 628.75C639.86 623.79 554.23 597.25 554.23 597.25C554.23 597.25 514.96 585.58 502.23 584.87H501.99L502.48 587.11C502.48 587.11 513.06 607.54 511.03 824.28C521.73 824.58 528.62 824.77 529.12 824.77C531.6 824.77 535.12 821.94 541.5 813.45C547.88 804.96 553.18 779.45 560.26 776.3C567.34 773.15 575.12 774.88 579.01 783.73C582.9 792.58 581.83 820.17 581.83 820.17Z" fill="#E0E0E0" stroke="#263238" stroke-miterlimit="10"/>
<path d="M710.46 787.841C712.21 794.841 711.46 808.171 709.64 817.311C709.995 817.288 710.338 817.179 710.64 816.991C712.41 814.511 714.18 807.791 715.59 798.941C716.52 793.131 715.77 784.581 714.34 776.881C714.14 780.711 713.24 785.121 710.46 787.841Z" fill="#263238" stroke="#263238" stroke-miterlimit="10"/>
<path d="M559.25 776.92H352.89C354.5 802.92 358.79 820.17 363.52 820.17C369.52 820.17 526.63 824.77 529.11 824.77C531.59 824.77 535.11 821.94 541.49 813.45C547.56 805.36 552.66 781.89 559.25 776.92Z" fill="#263238" stroke="#263238" stroke-miterlimit="10"/>
<path d="M424.6 591.65V592.15C424.6 592.554 424.684 592.953 424.846 593.322C425.008 593.691 425.245 594.022 425.542 594.295C425.84 594.568 426.19 594.776 426.572 594.906C426.954 595.036 427.358 595.085 427.76 595.05L447.93 593.37C448.658 593.31 449.336 592.979 449.831 592.441C450.325 591.904 450.6 591.201 450.6 590.47V589.97C450.599 589.568 450.514 589.169 450.351 588.801C450.188 588.432 449.951 588.102 449.654 587.829C449.358 587.557 449.008 587.349 448.627 587.218C448.245 587.088 447.841 587.037 447.44 587.07L427.28 588.75C426.551 588.811 425.872 589.142 425.375 589.679C424.879 590.216 424.603 590.919 424.6 591.65Z" stroke="#263238" stroke-miterlimit="10"/>
<path d="M502.47 587.11C502.47 587.11 507.1 683.97 507.1 697.11C507.1 710.25 508.47 807.61 508.47 807.61L560.31 808.16C563.059 787.441 564.515 766.571 564.67 745.67C564.67 713.75 559.76 637.36 557.03 614.98C554.3 592.6 550.76 575.65 550.76 575.65L502.47 587.11Z" fill="white" stroke="#263238" stroke-miterlimit="10"/>
<path d="M512.29 717.531L550.49 715.891C550.49 715.891 552.4 745.091 550.49 765.831C548.58 786.571 547.76 791.751 546.67 792.831C545.58 793.911 512.29 792.831 512.29 792.831C510.883 791.253 510.104 789.214 510.1 787.101C510.1 783.551 509.29 722.431 509.29 720.521C509.29 718.611 510.38 718.351 512.29 717.531Z" fill="#263238" stroke="#263238" stroke-miterlimit="10"/>
<path d="M507.38 604.031L508.47 616.311L546.39 610.581C545.949 607.63 545.027 604.772 543.66 602.121C541.21 596.931 537.93 595.301 537.93 595.301L510.1 601.571" stroke="#263238" stroke-miterlimit="10"/>
<path d="M542.85 580.841C542.85 580.841 549.12 597.481 554.03 642.501C558.94 687.521 560.85 779.191 557.03 797.751C556.95 798.784 556.639 799.786 556.12 800.683C555.601 801.579 554.886 802.348 554.03 802.931C551.03 805.111 512.03 804.301 512.03 804.301" stroke="#263238" stroke-miterlimit="10"/>
<path d="M544.48 621.76C544.48 621.76 546.12 616.85 549.67 652.59C553.22 688.33 553.49 701.71 551.85 702.8C550.21 703.89 515.29 705.8 515.29 705.8" stroke="#263238" stroke-miterlimit="10"/>
<path d="M533.84 621.49C533.84 621.49 512.01 623.95 510.38 625.86C508.75 627.77 512.29 643.32 513.11 668.69C513.93 694.06 513.92 700.07 513.92 700.07" stroke="#263238" stroke-miterlimit="10"/>
<path d="M543.94 628.86L516.65 633.25C515.874 633.498 515.219 634.028 514.816 634.736C514.412 635.443 514.289 636.276 514.47 637.07C515.02 640.07 518.56 678.82 517.74 698.74" stroke="#263238" stroke-miterlimit="10"/>
<path d="M340.96 666.811V763.421" stroke="#263238" stroke-miterlimit="10"/>
<path d="M345.16 655.791L345.37 643.411C345.37 643.411 336.7 599.041 336.08 598.211C335.46 597.381 264.67 596.771 263.85 597.211C263.03 597.651 263.64 601.961 263.64 601.961C263.64 601.961 264.47 616.201 265.09 661.811C265.71 707.421 264.88 800.701 264.88 800.701L343.88 801.321C343.88 801.321 343.06 795.131 344.3 774.701C345.54 754.271 345.74 660.571 345.74 659.701V657.021L345.16 655.791Z" fill="white" stroke="#263238" stroke-miterlimit="10"/>
<path d="M267.6 600.351C267.6 600.351 328.07 601.261 329.7 601.621C331.33 601.981 332.42 605.261 332.97 607.071C333.52 608.881 341.14 642.121 341.68 647.021" stroke="#263238" stroke-miterlimit="10"/>
<path d="M340.96 776.32C340.96 776.32 341.32 788.32 340.05 790.84C339.664 791.816 339.022 792.67 338.191 793.31C337.36 793.951 336.372 794.355 335.33 794.48C333.33 794.84 266.87 793.75 266.87 793.75" stroke="#263238" stroke-miterlimit="10"/>
<path d="M272.32 720.571L271.41 786.851L336.24 787.761C336.24 787.761 337.69 722.021 337.51 721.111C337.33 720.201 337.33 719.301 333.69 718.931C330.05 718.561 275.95 718.031 275.04 718.031C274.39 718.148 273.788 718.45 273.306 718.9C272.823 719.351 272.481 719.931 272.32 720.571Z" fill="#263238" stroke="#263238" stroke-miterlimit="10"/>
<path d="M277.76 613.61C277.76 613.61 271.76 621.96 271.23 623.96C270.7 625.96 271.23 627.41 272.68 627.59C274.13 627.77 328.97 627.59 328.97 627.59C328.97 627.59 330.97 627.23 330.79 624.14" stroke="#263238" stroke-miterlimit="10"/>
<path d="M281.4 613.061H326.4C326.4 613.061 327.85 613.061 328.76 616.881" stroke="#263238" stroke-miterlimit="10"/>
<path d="M285.39 640.12C285.39 640.12 281.03 641.57 280.85 645.57C280.67 649.57 281.76 703.68 281.76 703.68" stroke="#263238" stroke-miterlimit="10"/>
<path d="M292.29 639.94C292.29 639.94 326.43 640.85 328.61 641.21C330.79 641.57 332.79 643.94 333.33 645.75C333.87 647.56 333.88 700.96 333.88 700.96" stroke="#263238" stroke-miterlimit="10"/>
<path d="M287.57 635.95C287.57 635.95 280.31 635.76 277.04 637.76C273.77 639.76 274.31 645.03 274.5 647.02C274.69 649.01 275.22 702.77 275.22 702.77C275.22 702.77 275.22 704.95 278.13 705.13C281.04 705.31 329.52 705.31 329.52 705.31C330.125 705.29 330.717 705.133 331.252 704.85C331.788 704.568 332.252 704.168 332.61 703.68" stroke="#263238" stroke-miterlimit="10"/>
<path d="M294.65 635.25C294.65 635.25 328.25 636.16 331.33 637.61C334.41 639.06 333.88 641.79 334.06 643.06" stroke="#263238" stroke-miterlimit="10"/>
<path d="M359.2 656.41H343.31V661.98H359.2V656.41Z" stroke="#263238" stroke-miterlimit="10"/>
<path d="M353.42 654.761H348.05V664.051H353.42V654.761Z" stroke="#263238" stroke-miterlimit="10"/>
<path d="M357.75 767.24H341.86V772.81H357.75V767.24Z" stroke="#263238" stroke-miterlimit="10"/>
<path d="M351.98 765.59H346.61V774.88H351.98V765.59Z" stroke="#263238" stroke-miterlimit="10"/>
<path d="M502.38 594.891L381.99 604.031C381.99 604.031 371.63 656.461 371.63 657.371C371.63 658.281 368.28 742.371 369.5 762.831C370.72 783.291 371.02 800.311 371.02 800.311L507.56 804.311L502.38 594.891Z" fill="white" stroke="#263238" stroke-miterlimit="10"/>
<path d="M502.38 594.891L381.99 604.031C381.99 604.031 371.63 656.461 371.63 657.371C371.63 658.281 368.28 742.371 369.5 762.831C370.72 783.291 371.02 800.311 371.02 800.311L507.56 804.311L502.38 594.891Z" fill="#263238" stroke="#263238" stroke-miterlimit="10"/>
<path d="M463.02 802.98V738.34H436.41V802.21L463.02 802.98Z" fill="#92E3A9" stroke="#263238" stroke-miterlimit="10"/>
<path d="M381.98 800.63L436.41 802.21V738.34H381.98V800.63Z" fill="#92E3A9" stroke="#263238" stroke-miterlimit="10"/>
<path d="M403.5 768.789H414.89V738.329H403.5V768.789Z" fill="white" stroke="#263238" stroke-miterlimit="10"/>
<path d="M492.09 803.82H507.55L507.33 794.8L505.93 738.34H440.57V802.33L492.09 803.82Z" fill="#92E3A9" stroke="#263238" stroke-miterlimit="10"/>
<path d="M492.09 803.82H495V738.34H440.57V802.33L492.09 803.82Z" fill="#92E3A9" stroke="#263238" stroke-miterlimit="10"/>
<path d="M464.99 755.34H446.73V767.65H464.99V755.34Z" fill="white" stroke="#263238" stroke-miterlimit="10"/>
<path d="M462.09 748.15H473.48V738.34H462.09V748.15Z" fill="white" stroke="#263238" stroke-miterlimit="10"/>
<path d="M587.57 791.689C587.57 791.689 587.95 803.439 588.32 806.469C588.69 809.499 591.32 811.009 594.77 810.259C598.22 809.509 670.92 811.389 670.92 811.389C671.99 811.074 672.932 810.428 673.613 809.544C674.294 808.661 674.678 807.584 674.71 806.469C675.09 802.299 676.22 796.239 676.22 796.239L587.57 791.689Z" fill="#263238" stroke="#263238" stroke-miterlimit="10"/>
<path d="M655.33 679.851C655.33 679.851 660.83 724.421 663.33 729.921C665.83 735.421 667.85 737.571 670.79 738.751C673.73 739.931 690.43 744.841 692.39 745.031C694.35 745.221 695.39 744.251 694.75 741.891C694.11 739.531 671.38 687.701 669.42 684.561C667.46 681.421 660.98 678.871 658.62 678.081C656.26 677.291 655.33 679.851 655.33 679.851Z" fill="#B2B2B2" stroke="#263238" stroke-miterlimit="10"/>
<path d="M666.76 682.301L677.05 739.511" stroke="#263238" stroke-miterlimit="10"/>
<path d="M691.07 720.49C691.07 720.49 691.66 741.49 692.07 743.27C692.48 745.05 694.07 745.82 696 745.62C697.93 745.42 704.44 744.62 705.22 742.68C706 740.74 704.83 725.79 702.47 722.26C700.11 718.73 695.41 717.55 693.47 717.35C691.53 717.15 691.07 720.49 691.07 720.49Z" fill="#B2B2B2" stroke="#263238" stroke-miterlimit="10"/>
<path d="M692.05 743.251C692.44 745.011 694.05 745.801 695.98 745.601C697.91 745.401 704.42 744.601 705.2 742.661C705.98 740.721 704.81 725.771 702.45 722.241C701.485 720.854 700.189 719.73 698.68 718.971L699.12 720.081L700.49 739.321H691.76C691.85 741.361 691.96 742.851 692.05 743.251Z" fill="#263238" stroke="#263238" stroke-miterlimit="10"/>
<path d="M568.56 747.051L699.73 762.181" stroke="#263238" stroke-miterlimit="10"/>
<path d="M569.82 751.781L684.91 764.071L694.05 763.441" stroke="#263238" stroke-miterlimit="10"/>
<path d="M683.96 772.25C683.96 772.25 679.55 789.59 677.66 793.69" stroke="#263238" stroke-miterlimit="10"/>
<path d="M570.45 760.25C570.45 760.25 579.91 765.25 584.96 783.58" stroke="#263238" stroke-miterlimit="10"/>
<path d="M565.72 656.24L649.59 675.47" stroke="#263238" stroke-miterlimit="10"/>
<path d="M566.98 650.881C566.98 650.881 654.32 670.751 661.58 674.531" stroke="#263238" stroke-miterlimit="10"/>
<path d="M663.85 754.901C663.332 754.734 662.876 754.415 662.542 753.985C662.208 753.555 662.012 753.034 661.98 752.491V739.441C661.967 739.212 662.013 738.984 662.112 738.778C662.212 738.572 662.362 738.395 662.549 738.263C662.736 738.131 662.954 738.048 663.181 738.024C663.409 737.999 663.639 738.032 663.85 738.121C664.367 738.287 664.822 738.607 665.154 739.037C665.486 739.467 665.68 739.988 665.71 740.531V753.581C665.722 753.808 665.676 754.035 665.577 754.239C665.478 754.444 665.329 754.621 665.143 754.752C664.958 754.884 664.742 754.967 664.516 754.993C664.29 755.019 664.061 754.987 663.85 754.901Z" fill="#263238" stroke="#263238" stroke-miterlimit="10"/>
<path d="M649.3 753.41C648.783 753.243 648.328 752.924 647.996 752.494C647.664 752.063 647.47 751.543 647.44 751V737.95C647.428 737.723 647.474 737.496 647.573 737.291C647.672 737.087 647.821 736.91 648.007 736.778C648.193 736.647 648.408 736.564 648.634 736.538C648.861 736.512 649.089 736.544 649.3 736.63C649.818 736.796 650.274 737.116 650.608 737.546C650.942 737.976 651.138 738.497 651.17 739.04V752.04C651.192 752.273 651.153 752.507 651.057 752.72C650.962 752.933 650.812 753.118 650.624 753.256C650.435 753.394 650.214 753.481 649.982 753.508C649.75 753.535 649.515 753.501 649.3 753.41Z" fill="#263238" stroke="#263238" stroke-miterlimit="10"/>
<path d="M395.22 738.781H465.53V687.771H395.22V738.781Z" fill="#92E3A9" stroke="#263238" stroke-miterlimit="10"/>
<path d="M395.22 738.781H437.62V687.771H395.22V738.781Z" fill="#92E3A9" stroke="#263238" stroke-miterlimit="10"/>
<path d="M411.99 711.5H420.86V687.78H411.99V711.5Z" fill="white" stroke="#263238" stroke-miterlimit="10"/>
<path d="M503.42 636.971H455.1V687.981H504.68L503.42 636.971Z" fill="#92E3A9" stroke="#263238" stroke-miterlimit="10"/>
<path d="M455.09 687.98H497.49V636.97H455.09V687.98Z" fill="#92E3A9" stroke="#263238" stroke-miterlimit="10"/>
<path d="M494.37 665.621H476.11V677.931H494.37V665.621Z" fill="white" stroke="#263238" stroke-miterlimit="10"/>
<path d="M471.86 660.689H480.73V636.969H471.86V660.689Z" fill="white" stroke="#263238" stroke-miterlimit="10"/>
<path d="M504.68 687.77H449.2V738.78H505.94L504.68 687.77Z" fill="#92E3A9" stroke="#263238" stroke-miterlimit="10"/>
<path d="M449.2 738.781H491.6V687.771H449.2V738.781Z" fill="#92E3A9" stroke="#263238" stroke-miterlimit="10"/>
<path d="M465.97 711.5H474.84V687.78H465.97V711.5Z" fill="white" stroke="#263238" stroke-miterlimit="10"/>
<path d="M385.74 681.07H450.9V633.79H385.74V681.07Z" fill="#92E3A9" stroke="#263238" stroke-miterlimit="10"/>
<path d="M385.74 681.07H425.03V633.79H385.74V681.07Z" fill="#92E3A9" stroke="#263238" stroke-miterlimit="10"/>
<path d="M401.28 655.779H409.5V633.789H401.28V655.779Z" fill="white" stroke="#263238" stroke-miterlimit="10"/>
<path d="M346.43 633.17C346.084 634.691 346.21 636.281 346.79 637.73C347.79 640.36 349.3 644.92 350.26 646.36C350.852 647.415 351.103 648.626 350.98 649.83L364.41 656.07C364.41 656.07 364.65 651.07 365.12 650.79C365.59 650.51 369.32 650.55 370.12 649.23C370.92 647.91 370 641.32 370 641.32C370.397 640.922 370.686 640.43 370.84 639.89C370.96 639.17 369.04 637.49 369.28 636.17C369.52 634.85 370.12 633.41 369.16 631.5C368.2 629.59 365.38 624.94 360.94 623.5C356.5 622.06 351.73 623.73 349.82 625.77C347.91 627.81 346.31 630.18 346.43 633.17Z" fill="white" stroke="#263238" stroke-miterlimit="10"/>
<path d="M366.34 634.56C366.9 633.65 367.242 632.624 367.34 631.56C367.34 630.56 365.96 630.4 363.7 631.29C361.88 632 350.96 635.84 346.82 637.73C347.759 640.615 348.882 643.438 350.18 646.18C350.429 646.508 350.722 646.801 351.05 647.05C352.15 647.67 355.17 646.44 356.27 644.79C357.18 643.43 357.57 639.42 357.68 638.04C357.68 637.75 357.68 637.58 357.68 637.58C358.1 636.48 359.74 636.41 360.91 637.03C361.356 637.297 361.852 637.472 362.368 637.542C362.884 637.613 363.408 637.578 363.91 637.44C364.219 637.311 364.48 637.09 364.659 636.808C364.838 636.525 364.926 636.194 364.91 635.86C364.89 635.38 365.99 635.04 366.34 634.56Z" fill="#263238" stroke="#263238" stroke-miterlimit="10"/>
<path d="M362.01 638.129C362.01 638.129 360.36 635.719 358.92 637.709C357.48 639.699 359.92 642.449 360.84 642.929C361.76 643.409 362.22 642.859 362.49 642.109" fill="white"/>
<path d="M362.01 638.129C362.01 638.129 360.36 635.719 358.92 637.709C357.48 639.699 359.92 642.449 360.84 642.929C361.76 643.409 362.22 642.859 362.49 642.109" stroke="#263238" stroke-miterlimit="10"/>
<path d="M360.98 623.5C356.55 622.06 351.77 623.73 349.86 625.77C347.95 627.81 346.31 630.18 346.43 633.17C346.084 634.691 346.21 636.281 346.79 637.73C347.06 638.47 347.38 639.37 347.71 640.3H347.8C350.703 640.771 353.68 640.316 356.31 639C360.77 636.8 367.99 632.82 368.67 631.51C368.762 631.365 368.894 631.251 369.05 631.18C367.97 629.14 365.21 624.87 360.98 623.5Z" fill="#92E3A9" stroke="#263238" stroke-miterlimit="10"/>
<path d="M365.92 633.94C365.92 633.94 371.28 634.07 374.17 632.63C377.06 631.19 376.57 628.51 376.02 628.31C375.47 628.11 367.85 629.06 367.85 629.06C368.004 629.972 367.906 630.909 367.566 631.769C367.225 632.629 366.656 633.38 365.92 633.94Z" fill="#92E3A9" stroke="#263238" stroke-miterlimit="10"/>
<path d="M368.64 637.13C368.64 637.75 368.45 638.26 368.21 638.26C367.97 638.26 367.78 637.75 367.78 637.13C367.78 636.51 367.97 636 368.21 636C368.45 636 368.64 636.5 368.64 637.13Z" fill="#263238"/>
<path d="M366.6 658.67C365.428 656.683 363.958 654.889 362.24 653.35C359.008 651.229 355.383 649.777 351.58 649.08C349.26 648.89 349.93 650.15 349.64 651.5C349.35 652.85 349.06 653.35 349.84 653.5C353.016 654.174 356.103 655.215 359.04 656.6C363.79 658.83 366.21 660.18 366.7 659.89C367.19 659.6 366.6 658.67 366.6 658.67Z" fill="#263238" stroke="#263238" stroke-miterlimit="10"/>
<path d="M358.03 833.35C358.03 833.35 361.41 838.9 363.31 839.98C365.21 841.06 368.85 842.28 369.12 844.31C369.39 846.34 366.96 846.25 365.76 846.25C364.56 846.25 356.56 846.52 355.21 845.98C353.86 845.44 350.6 842.98 346.95 840.98C343.3 838.98 340.05 838.68 340.05 835.29C340.05 831.9 343.16 831.23 343.7 830.69C344.24 830.15 358.03 833.35 358.03 833.35Z" fill="white" stroke="#263238" stroke-miterlimit="10"/>
<path d="M345.31 738.889C345.31 738.889 348.69 770.829 348.82 772.449C348.95 774.069 346.66 779.889 345.71 785.039C344.76 790.189 343.55 804.389 343.55 804.389L343.95 832.389C343.95 832.389 352.07 834.289 353.29 834.149C354.51 834.009 357.62 833.479 358.03 833.339L360.73 832.339C360.73 832.339 360.19 822.999 360.19 820.029C360.19 817.059 362.09 797.969 362.49 796.029C362.89 794.089 367.64 766.259 368.31 751.509C368.701 742.449 368.111 733.373 366.55 724.439L343.28 725.659L345.31 738.889Z" fill="#92E3A9" stroke="#263238" stroke-miterlimit="10"/>
<path d="M351.13 833.89C351.13 833.89 353.13 838.76 354.13 839.58C355.13 840.4 361.03 842.69 361.31 843.77C361.59 844.85 360.49 845.77 359 846.21C357.51 846.65 346.82 846.61 344.66 845.53C342.5 844.45 335.73 839.44 333.83 838.63C331.93 837.82 328.83 836.73 329.64 833.35C330.45 829.97 334.51 827.35 334.51 827.35L351.13 833.89Z" fill="white" stroke="#263238" stroke-miterlimit="10"/>
<path d="M341.38 723.32C341.38 723.32 340.03 729.96 342.06 735.1C344.09 740.24 349.77 747.1 350.72 748.5C351.67 749.9 350.45 765.55 349.77 771.64C349.09 777.73 348.01 788.01 348.01 788.42C348.01 788.83 342.19 803.71 339.76 810.61C337.33 817.51 333.26 827.4 333.26 827.4C333.26 827.4 338.67 831.46 341.38 832.27C344.597 832.993 347.852 833.534 351.13 833.89C351.441 832.32 351.893 830.78 352.48 829.29C353.16 827.94 352.34 827.4 353.16 823.74C353.98 820.08 363.03 800.6 366.42 795.05C369.81 789.5 371.83 779.35 373.18 774.35C374.53 769.35 374.54 748.9 374.81 741.87C374.823 736.803 374.15 731.757 372.81 726.87L372.13 724.3L341.38 723.32Z" fill="#92E3A9" stroke="#263238" stroke-miterlimit="10"/>
<path d="M363.7 763.25C363.48 765.25 363.21 767.25 362.87 769.42" stroke="#263238" stroke-miterlimit="10"/>
<path d="M361.95 726.33C361.337 727.568 361.124 728.966 361.34 730.33C361.64 732.79 363.8 733.71 365.03 735.25C366.26 736.79 363.8 737.41 363.18 739.25C362.56 741.09 364.41 742.64 364.41 743.87C364.574 748.568 364.494 753.271 364.17 757.96" stroke="#263238" stroke-miterlimit="10"/>
<path d="M340.43 718.45C340.43 718.45 339.35 723.73 340.3 724.27C341.25 724.81 371.15 724.41 372.1 724.27C373.05 724.13 373.59 724 373.73 722.78C373.69 721.279 373.506 719.786 373.18 718.32L340.43 718.45Z" fill="#263238" stroke="#263238" stroke-miterlimit="10"/>
<path d="M349.84 653.54C349.84 653.54 340.76 659.06 338.5 666.25C336.24 673.44 339.38 705.33 339.38 705.33C339.38 705.33 336.83 716.33 339.21 718.58C341.59 720.83 371.97 720.27 373.33 719.25C374.092 718.605 374.7 717.798 375.11 716.888C375.52 715.978 375.722 714.988 375.7 713.99C375.7 711.79 376.38 692.43 376.38 681.57C376.494 674.09 373.833 666.833 368.91 661.2C366.6 658.69 365.01 658.31 365.01 658.31C365.01 658.31 352.83 653.54 349.84 653.54Z" fill="#92E3A9" stroke="#263238" stroke-miterlimit="10"/>
<path d="M343.99 677.01C344.661 678.319 345.419 679.582 346.26 680.79" stroke="#263238" stroke-miterlimit="10"/>
<path d="M343.18 665.711C343.18 665.711 341.33 667.561 342.13 671.861" stroke="#263238" stroke-miterlimit="10"/>
<path d="M364.65 661.4C364.65 661.4 370.32 660.27 374.11 662.26C377.9 664.25 384.04 670.34 385.68 671.15C387.32 671.96 390.18 674.79 392.54 675.41C394.9 676.03 398.81 677.34 398.81 677.34C398.81 677.34 410.29 676.54 411.64 676.43C412.99 676.32 422.5 676.49 422.5 676.49C422.865 677.709 423.106 678.962 423.22 680.23C423.32 681.361 423.32 682.498 423.22 683.63C421.8 684.489 420.319 685.244 418.79 685.89C417.86 686.1 409.62 688.27 402.46 690.48C395.3 692.69 384.23 690.94 376.72 689.02C369.21 687.1 351.72 679.86 350.87 679.44" fill="#92E3A9"/>
<path d="M364.65 661.4C364.65 661.4 370.32 660.27 374.11 662.26C377.9 664.25 384.04 670.34 385.68 671.15C387.32 671.96 390.18 674.79 392.54 675.41C394.9 676.03 398.81 677.34 398.81 677.34C398.81 677.34 410.29 676.54 411.64 676.43C412.99 676.32 422.5 676.49 422.5 676.49C422.865 677.709 423.106 678.962 423.22 680.23C423.32 681.361 423.32 682.498 423.22 683.63C421.8 684.489 420.319 685.244 418.79 685.89C417.86 686.1 409.62 688.27 402.46 690.48C395.3 692.69 384.23 690.94 376.72 689.02C369.21 687.1 351.72 679.86 350.87 679.44" stroke="#263238" stroke-miterlimit="10"/>
<path d="M387.25 684.391C385.721 684.854 384.155 685.189 382.57 685.391" stroke="#263238" stroke-miterlimit="10"/>
<path d="M398.57 679.25C395.951 680.838 393.201 682.2 390.35 683.32" stroke="#263238" stroke-miterlimit="10"/>
<path d="M366.01 684.75C366.01 684.75 360.46 695.31 353.7 700.05" stroke="#263238" stroke-miterlimit="10"/>
<path d="M358.57 702.07C357.282 703.578 355.878 704.983 354.37 706.27" stroke="#263238" stroke-miterlimit="10"/>
<path d="M366.28 691.789C366.28 691.789 363.85 695.569 360.69 699.529" stroke="#263238" stroke-miterlimit="10"/>
<path d="M422.5 676.49C422.5 676.49 424.61 674.14 426.01 672.9C427.25 671.941 428.564 671.081 429.94 670.33C430.77 669.76 431.3 667.08 432.5 667.99C432.715 668.117 432.9 668.288 433.043 668.493C433.186 668.698 433.283 668.931 433.327 669.177C433.372 669.423 433.363 669.675 433.301 669.917C433.24 670.159 433.127 670.385 432.97 670.58C432.53 671.37 431.53 672.95 431.21 673.58L430.89 674.24C432.516 674.649 434.171 674.933 435.84 675.09C437.34 675.09 441.49 675.25 441.68 675.99C441.87 676.73 441.3 677.52 440.93 677.55L435.45 678C435.45 678 439.66 680.41 439.69 680.78C439.72 681.15 438.77 681.86 437.69 682.2C436.61 682.54 434.95 683.93 433.21 684.07C430.73 684.136 428.249 684.005 425.79 683.68C424.945 683.562 424.09 683.538 423.24 683.61L422.5 676.49Z" fill="white" stroke="#263238" stroke-miterlimit="10"/>
<path d="M433.61 680.049L437.67 682.219" stroke="#263238" stroke-miterlimit="10"/>
<path d="M432.03 682.18L434.63 683.34" stroke="#263238" stroke-miterlimit="10"/>
<path d="M250.62 846.582H340.88V781.092H250.62V846.582Z" fill="#92E3A9" stroke="#263238" stroke-miterlimit="10"/>
<path d="M250.62 846.582H305.05V781.092H250.62V846.582Z" fill="#92E3A9" stroke="#263238" stroke-miterlimit="10"/>
<path d="M272.14 811.551H283.53V781.091H272.14V811.551Z" fill="white" stroke="#263238" stroke-miterlimit="10"/>
<path d="M237.75 769.801H164.53V835.291H237.75V769.801Z" fill="#92E3A9" stroke="#263238" stroke-miterlimit="10"/>
<path d="M237.76 769.801H193.6V835.291H237.76V769.801Z" fill="#92E3A9" stroke="#263238" stroke-miterlimit="10"/>
<path d="M220.29 769.801H211.05V800.261H220.29V769.801Z" fill="white" stroke="#263238" stroke-miterlimit="10"/>
<path d="M368.84 513H335V547.61H368.84V513Z" fill="white" stroke="#263238" stroke-miterlimit="10"/>
<path d="M657.84 513H624V547.61H657.84V513Z" fill="white" stroke="#263238" stroke-miterlimit="10"/>
<path d="M635.39 535.22H640.31C640.31 537.97 640.61 538.69 641.78 538.61C642.95 538.53 642.95 537 642.95 534.11C642.95 532.11 642.7 530.49 641.42 530.49C640.56 530.49 640.06 531.08 639.86 532.61H635.41L635.9 519.38H646.7V523.52H639.97L639.7 527.76C640.432 527.161 641.336 526.811 642.28 526.76C645.67 526.29 647.7 528.99 647.7 534.1C647.7 538.97 646.92 542.41 641.39 542.41C636.19 542.36 635.39 539.45 635.39 535.22Z" fill="#263238"/>
<path d="M353.345 540V536.687H343.249V532.339C344.165 530.574 345.213 528.719 346.393 526.774C347.582 524.82 349.13 522.418 351.037 519.567H358.259V532.637H360.808V536.687H358.259V540H353.345ZM347.653 532.679V532.821H353.487V523.079H353.388C352.019 525.118 350.914 526.831 350.074 528.219C349.243 529.597 348.436 531.084 347.653 532.679Z" fill="#263238"/>
</svg>
